<svg xmlns="http://www.w3.org/2000/svg" xmlns:xlink="http://www.w3.org/1999/xlink" width="500" zoomAndPan="magnify" viewBox="0 0 375 374.999991" height="500" preserveAspectRatio="xMidYMid meet" version="1.0"><defs><g/><clipPath id="9b3e71db4e"><path d="M 92.761719 75.863281 L 282.238281 75.863281 L 282.238281 265.339844 L 92.761719 265.339844 Z M 92.761719 75.863281 " clip-rule="nonzero"/></clipPath><clipPath id="4d391da131"><path d="M 187.5 75.863281 C 135.179688 75.863281 92.761719 118.277344 92.761719 170.601562 C 92.761719 222.921875 135.179688 265.339844 187.5 265.339844 C 239.820312 265.339844 282.238281 222.921875 282.238281 170.601562 C 282.238281 118.277344 239.820312 75.863281 187.5 75.863281 Z M 187.5 75.863281 " clip-rule="nonzero"/></clipPath><clipPath id="6a14f204d4"><path d="M 105.484375 88.582031 L 269.515625 88.582031 L 269.515625 252.617188 L 105.484375 252.617188 Z M 105.484375 88.582031 " clip-rule="nonzero"/></clipPath><clipPath id="851410d96e"><path d="M 187.5 88.582031 C 142.203125 88.582031 105.484375 125.304688 105.484375 170.601562 C 105.484375 215.898438 142.203125 252.617188 187.5 252.617188 C 232.796875 252.617188 269.515625 215.898438 269.515625 170.601562 C 269.515625 125.304688 232.796875 88.582031 187.5 88.582031 Z M 187.5 88.582031 " clip-rule="nonzero"/></clipPath><clipPath id="d8c524806f"><path d="M 277.558594 205.75 L 316.386719 205.75 L 316.386719 244.578125 L 277.558594 244.578125 Z M 277.558594 205.75 " clip-rule="nonzero"/></clipPath><clipPath id="fc9735a9ae"><path d="M 296.972656 205.75 L 303.152344 218.984375 L 316.386719 225.164062 L 303.152344 231.339844 L 296.972656 244.578125 L 290.796875 231.339844 L 277.558594 225.164062 L 290.796875 218.984375 Z M 296.972656 205.75 " clip-rule="nonzero"/></clipPath><clipPath id="0ed3c8143a"><path d="M 283 211 L 311 211 L 311 239 L 283 239 Z M 283 211 " clip-rule="nonzero"/></clipPath><clipPath id="49d93e13a1"><path d="M 296.972656 197.707031 L 324.425781 225.164062 L 296.972656 252.621094 L 269.515625 225.164062 Z M 296.972656 197.707031 " clip-rule="nonzero"/></clipPath><clipPath id="3b4dcb72fc"><path d="M 310.699219 211.433594 L 305.707031 225.164062 L 310.699219 238.890625 L 296.972656 233.898438 L 283.242188 238.890625 L 288.234375 225.164062 L 283.242188 211.433594 L 296.972656 216.425781 Z M 310.699219 211.433594 " clip-rule="nonzero"/></clipPath><clipPath id="31ac792fab"><path d="M 58.613281 205.75 L 97.441406 205.75 L 97.441406 244.578125 L 58.613281 244.578125 Z M 58.613281 205.75 " clip-rule="nonzero"/></clipPath><clipPath id="a2168ff73b"><path d="M 78.027344 205.75 L 84.203125 218.984375 L 97.441406 225.164062 L 84.203125 231.339844 L 78.027344 244.578125 L 71.847656 231.339844 L 58.613281 225.164062 L 71.847656 218.984375 Z M 78.027344 205.75 " clip-rule="nonzero"/></clipPath><clipPath id="c17adab9f9"><path d="M 64 211 L 92 211 L 92 239 L 64 239 Z M 64 211 " clip-rule="nonzero"/></clipPath><clipPath id="bb6ec2f0e1"><path d="M 78.023438 197.707031 L 105.480469 225.164062 L 78.023438 252.621094 L 50.570312 225.164062 Z M 78.023438 197.707031 " clip-rule="nonzero"/></clipPath><clipPath id="b06c7cdd3a"><path d="M 91.753906 211.433594 L 86.761719 225.164062 L 91.753906 238.890625 L 78.023438 233.898438 L 64.296875 238.890625 L 69.289062 225.164062 L 64.296875 211.433594 L 78.023438 216.425781 Z M 91.753906 211.433594 " clip-rule="nonzero"/></clipPath><clipPath id="4423887949"><path d="M 83 60.550781 L 291.988281 60.550781 L 291.988281 143.050781 L 83 143.050781 Z M 83 60.550781 " clip-rule="nonzero"/></clipPath></defs><g clip-path="url(#9b3e71db4e)"><g clip-path="url(#4d391da131)"><path fill="#5291c1" d="M 92.761719 75.863281 L 282.238281 75.863281 L 282.238281 265.339844 L 92.761719 265.339844 Z M 92.761719 75.863281 " fill-opacity="1" fill-rule="nonzero"/></g></g><g clip-path="url(#6a14f204d4)"><g clip-path="url(#851410d96e)"><path fill="#ffffff" d="M 105.484375 88.582031 L 269.515625 88.582031 L 269.515625 252.617188 L 105.484375 252.617188 Z M 105.484375 88.582031 " fill-opacity="1" fill-rule="nonzero"/></g></g><g fill="#112b4a" fill-opacity="1"><g transform="translate(92.157044, 246.545367)"><g><path d="M 0.71875 4.953125 L 1.03125 3.703125 C 1.09375 3.679688 1.164062 3.671875 1.25 3.671875 C 1.332031 3.679688 1.492188 3.6875 1.734375 3.6875 C 1.984375 3.695312 2.207031 3.71875 2.40625 3.75 C 2.613281 3.789062 2.828125 3.851562 3.046875 3.9375 C 3.273438 4.019531 3.453125 4.128906 3.578125 4.265625 L 3.625 4.234375 C 2.8125 2.867188 2.546875 1.421875 2.828125 -0.109375 C 3.117188 -1.640625 3.90625 -2.972656 5.1875 -4.109375 C 6.613281 -5.390625 8.242188 -5.988281 10.078125 -5.90625 C 11.910156 -5.832031 13.429688 -5.113281 14.640625 -3.75 C 15.867188 -2.375 16.410156 -0.78125 16.265625 1.03125 C 16.117188 2.851562 15.332031 4.40625 13.90625 5.6875 C 12.726562 6.726562 11.414062 7.328125 9.96875 7.484375 C 8.519531 7.648438 7.179688 7.363281 5.953125 6.625 L 5.90625 6.671875 C 5.957031 6.722656 6.109375 6.96875 6.359375 7.40625 C 6.617188 7.84375 6.847656 8.171875 7.046875 8.390625 C 7.316406 8.691406 7.613281 8.921875 7.9375 9.078125 C 8.269531 9.234375 8.53125 9.3125 8.71875 9.3125 L 9.015625 9.296875 L 8.125 11.359375 C 8.070312 11.378906 8 11.398438 7.90625 11.421875 C 7.8125 11.441406 7.628906 11.453125 7.359375 11.453125 C 7.097656 11.460938 6.835938 11.441406 6.578125 11.390625 C 6.328125 11.335938 6.035156 11.222656 5.703125 11.046875 C 5.378906 10.878906 5.082031 10.648438 4.8125 10.359375 C 4.382812 9.878906 4.015625 9.144531 3.703125 8.15625 C 3.398438 7.175781 3.019531 6.429688 2.5625 5.921875 C 2.3125 5.640625 2.03125 5.421875 1.71875 5.265625 C 1.40625 5.109375 1.160156 5.019531 0.984375 5 Z M 7.34375 -1.6875 C 6.957031 -1.351562 6.640625 -0.992188 6.390625 -0.609375 C 6.140625 -0.222656 5.960938 0.179688 5.859375 0.609375 C 5.753906 1.035156 5.769531 1.484375 5.90625 1.953125 C 6.039062 2.421875 6.304688 2.878906 6.703125 3.328125 C 7.453125 4.160156 8.273438 4.539062 9.171875 4.46875 C 10.078125 4.394531 10.9375 3.992188 11.75 3.265625 C 12.550781 2.546875 13.039062 1.738281 13.21875 0.84375 C 13.40625 -0.0507812 13.128906 -0.910156 12.390625 -1.734375 C 11.671875 -2.546875 10.847656 -2.914062 9.921875 -2.84375 C 8.992188 -2.78125 8.132812 -2.394531 7.34375 -1.6875 Z M 7.34375 -1.6875 "/></g></g></g><g fill="#112b4a" fill-opacity="1"><g transform="translate(101.666032, 257.119446)"><g><path d="M 17.09375 -2.34375 L 11.390625 3.96875 C 10.304688 5.175781 9.160156 5.789062 7.953125 5.8125 C 6.742188 5.84375 5.507812 5.289062 4.25 4.15625 C 3 3.03125 2.328125 1.863281 2.234375 0.65625 C 2.148438 -0.539062 2.648438 -1.742188 3.734375 -2.953125 L 9.4375 -9.265625 L 11.671875 -7.234375 L 6.5625 -1.5625 C 5.84375 -0.769531 5.46875 -0.113281 5.4375 0.40625 C 5.414062 0.9375 5.6875 1.457031 6.25 1.96875 C 6.8125 2.476562 7.351562 2.691406 7.875 2.609375 C 8.394531 2.523438 9.015625 2.085938 9.734375 1.296875 L 14.84375 -4.375 Z M 17.09375 -2.34375 "/></g></g></g><g fill="#112b4a" fill-opacity="1"><g transform="translate(110.756276, 265.237056)"><g><path d="M 14.734375 -5.421875 L 13.15625 -3.3125 L 9.53125 -6.046875 L 7.953125 -3.953125 L 11.421875 -1.34375 L 9.828125 0.765625 L 6.359375 -1.84375 L 4.765625 0.28125 L 8.390625 3.015625 L 6.796875 5.125 L 0.765625 0.578125 L 8.703125 -9.96875 Z M 14.734375 -5.421875 "/></g></g></g><g fill="#112b4a" fill-opacity="1"><g transform="translate(118.374444, 270.961183)"><g><path d="M 14.28125 -6.5625 L 12.859375 -4.328125 L 9.015625 -6.78125 L 7.609375 -4.5625 L 11.28125 -2.21875 L 9.859375 0 L 6.1875 -2.34375 L 4.765625 -0.109375 L 8.609375 2.34375 L 7.1875 4.578125 L 0.796875 0.515625 L 7.890625 -10.625 Z M 14.28125 -6.5625 "/></g></g></g><g fill="#112b4a" fill-opacity="1"><g transform="translate(126.420255, 276.178526)"><g><path d="M 7.25 -5.484375 L 3.53125 1.8125 L 0.84375 0.4375 L 6.84375 -11.328125 L 9.53125 -9.953125 L 10.484375 -0.28125 L 10.515625 -0.265625 L 14.234375 -7.5625 L 16.90625 -6.1875 L 10.90625 5.578125 L 8.234375 4.203125 L 7.28125 -5.484375 Z M 7.25 -5.484375 "/></g></g></g><g fill="#112b4a" fill-opacity="1"><g transform="translate(138.471382, 282.141147)"><g/></g></g><g fill="#112b4a" fill-opacity="1"><g transform="translate(142.656472, 284.037523)"><g><path d="M 8.4375 0 C 8.863281 0.144531 9.304688 0.222656 9.765625 0.234375 C 10.222656 0.242188 10.566406 0.21875 10.796875 0.15625 L 11.15625 0.078125 L 11.53125 2.90625 C 11.488281 2.925781 11.421875 2.945312 11.328125 2.96875 C 11.234375 3 11.035156 3.035156 10.734375 3.078125 C 10.429688 3.117188 10.113281 3.140625 9.78125 3.140625 C 9.457031 3.148438 9.039062 3.113281 8.53125 3.03125 C 8.03125 2.945312 7.53125 2.816406 7.03125 2.640625 C 5.875 2.253906 4.875 1.597656 4.03125 0.671875 C 3.1875 -0.253906 2.617188 -1.320312 2.328125 -2.53125 C 2.035156 -3.75 2.085938 -4.9375 2.484375 -6.09375 C 2.785156 -6.976562 3.257812 -7.757812 3.90625 -8.4375 C 4.550781 -9.125 5.28125 -9.648438 6.09375 -10.015625 C 6.90625 -10.378906 7.785156 -10.585938 8.734375 -10.640625 C 9.679688 -10.703125 10.585938 -10.585938 11.453125 -10.296875 C 12.265625 -10.015625 12.972656 -9.660156 13.578125 -9.234375 C 14.191406 -8.816406 14.613281 -8.460938 14.84375 -8.171875 L 15.171875 -7.734375 L 13.140625 -5.71875 C 13.085938 -5.8125 13.003906 -5.925781 12.890625 -6.0625 C 12.773438 -6.195312 12.53125 -6.40625 12.15625 -6.6875 C 11.78125 -6.976562 11.378906 -7.195312 10.953125 -7.34375 C 10.253906 -7.582031 9.59375 -7.679688 8.96875 -7.640625 C 8.351562 -7.597656 7.820312 -7.445312 7.375 -7.1875 C 6.9375 -6.9375 6.5625 -6.628906 6.25 -6.265625 C 5.945312 -5.910156 5.722656 -5.515625 5.578125 -5.078125 C 5.253906 -4.128906 5.316406 -3.15625 5.765625 -2.15625 C 6.222656 -1.164062 7.113281 -0.445312 8.4375 0 Z M 8.4375 0 "/></g></g></g><g fill="#112b4a" fill-opacity="1"><g transform="translate(154.312398, 287.871554)"><g><path d="M 7.203125 -11.75 L 3.84375 1.015625 L 0.921875 0.25 L 4.28125 -12.515625 Z M 7.203125 -11.75 "/></g></g></g><g fill="#112b4a" fill-opacity="1"><g transform="translate(159.250705, 289.237722)"><g><path d="M 2.1875 -10.328125 L 2.703125 -12.921875 L 11.796875 -11.125 L 11.28125 -8.53125 L 8.203125 -9.140625 L 6.140625 1.21875 L 3.203125 0.640625 L 5.265625 -9.71875 Z M 2.1875 -10.328125 "/></g></g></g><g fill="#112b4a" fill-opacity="1"><g transform="translate(168.880803, 291.190866)"><g><path d="M 0.921875 -13.171875 L 4.53125 -12.796875 L 6.8125 -8.296875 L 10 -12.203125 L 13.59375 -11.828125 L 7.96875 -5.109375 L 7.34375 0.78125 L 4.359375 0.46875 L 4.984375 -5.421875 Z M 0.921875 -13.171875 "/></g></g></g><g fill="#112b4a" fill-opacity="1"><g transform="translate(180.813616, 292.331419)"><g/></g></g><g fill="#112b4a" fill-opacity="1"><g transform="translate(185.301402, 292.506626)"><g><path d="M 3.953125 -13.203125 L 3.96875 0 L 0.953125 0 L 0.9375 -13.203125 Z M 3.953125 -13.203125 "/></g></g></g><g fill="#112b4a" fill-opacity="1"><g transform="translate(190.479816, 292.651278)"><g><path d="M 3.3125 -8.46875 L 3.953125 -0.3125 L 0.953125 -0.078125 L -0.0625 -13.234375 L 2.9375 -13.46875 L 8.796875 -5.71875 L 8.828125 -5.71875 L 8.203125 -13.875 L 11.203125 -14.109375 L 12.21875 -0.953125 L 9.21875 -0.71875 L 3.34375 -8.46875 Z M 3.3125 -8.46875 "/></g></g></g><g fill="#112b4a" fill-opacity="1"><g transform="translate(203.950716, 291.503505)"><g><path d="M -1.703125 -10.421875 L -2.15625 -13.015625 L 6.984375 -14.625 L 7.4375 -12.03125 L 4.34375 -11.484375 L 6.171875 -1.078125 L 3.21875 -0.5625 L 1.390625 -10.96875 Z M -1.703125 -10.421875 "/></g></g></g><g fill="#112b4a" fill-opacity="1"><g transform="translate(213.589725, 289.800274)"><g><path d="M 4.953125 -14.90625 L 5.609375 -12.359375 L 1.203125 -11.234375 L 1.859375 -8.6875 L 6.0625 -9.765625 L 6.71875 -7.203125 L 2.515625 -6.125 L 3.1875 -3.5625 L 7.59375 -4.6875 L 8.25 -2.125 L 0.921875 -0.234375 L -2.375 -13.015625 Z M 4.953125 -14.90625 "/></g></g></g><g fill="#112b4a" fill-opacity="1"><g transform="translate(222.856779, 287.444604)"><g><path d="M -3.5 -12.765625 L 0.953125 -14.34375 C 2.140625 -14.769531 3.222656 -14.796875 4.203125 -14.421875 C 5.179688 -14.046875 5.882812 -13.265625 6.3125 -12.078125 C 6.632812 -11.160156 6.675781 -10.3125 6.4375 -9.53125 C 6.207031 -8.757812 5.742188 -8.101562 5.046875 -7.5625 L 11.15625 -3.953125 L 7.546875 -2.671875 L 2 -6.25 L 3.734375 -1.328125 L 0.90625 -0.3125 Z M 1.28125 -8.25 L 1.609375 -8.359375 C 1.878906 -8.453125 2.101562 -8.535156 2.28125 -8.609375 C 2.46875 -8.679688 2.664062 -8.785156 2.875 -8.921875 C 3.082031 -9.066406 3.234375 -9.222656 3.328125 -9.390625 C 3.429688 -9.554688 3.492188 -9.757812 3.515625 -10 C 3.546875 -10.238281 3.503906 -10.507812 3.390625 -10.8125 C 3.285156 -11.113281 3.144531 -11.351562 2.96875 -11.53125 C 2.800781 -11.71875 2.625 -11.835938 2.4375 -11.890625 C 2.257812 -11.953125 2.046875 -11.972656 1.796875 -11.953125 C 1.546875 -11.929688 1.328125 -11.890625 1.140625 -11.828125 C 0.953125 -11.773438 0.722656 -11.703125 0.453125 -11.609375 L 0.125 -11.5 Z M 1.28125 -8.25 "/></g></g></g><g fill="#112b4a" fill-opacity="1"><g transform="translate(233.968931, 283.524425)"><g><path d="M 1.28125 -15.203125 L 11.734375 -5.546875 L 8.828125 -4.171875 L 6.8125 -6.140625 L 2.28125 -4 L 2.515625 -1.1875 L -0.40625 0.1875 L -1.234375 -14.015625 Z M 4.765625 -8.09375 L 1.78125 -10.9375 L 1.765625 -10.921875 L 2.078125 -6.828125 Z M 4.765625 -8.09375 "/></g></g></g><g fill="#112b4a" fill-opacity="1"><g transform="translate(245.599257, 277.994447)"><g><path d="M 5.421875 -6.46875 C 5.816406 -6.707031 6.160156 -7 6.453125 -7.34375 C 6.753906 -7.6875 6.957031 -7.960938 7.0625 -8.171875 L 7.21875 -8.5 L 9.640625 -6.984375 C 9.617188 -6.921875 9.585938 -6.847656 9.546875 -6.765625 C 9.515625 -6.691406 9.414062 -6.523438 9.25 -6.265625 C 9.09375 -6.003906 8.910156 -5.742188 8.703125 -5.484375 C 8.492188 -5.234375 8.195312 -4.941406 7.8125 -4.609375 C 7.425781 -4.273438 7.003906 -3.96875 6.546875 -3.6875 C 5.503906 -3.0625 4.359375 -2.71875 3.109375 -2.65625 C 1.859375 -2.601562 0.675781 -2.851562 -0.4375 -3.40625 C -1.5625 -3.957031 -2.441406 -4.757812 -3.078125 -5.8125 C -3.554688 -6.601562 -3.847656 -7.460938 -3.953125 -8.390625 C -4.066406 -9.328125 -4.003906 -10.226562 -3.765625 -11.09375 C -3.523438 -11.957031 -3.125 -12.769531 -2.5625 -13.53125 C -2 -14.289062 -1.328125 -14.90625 -0.546875 -15.375 C 0.179688 -15.820312 0.90625 -16.144531 1.625 -16.34375 C 2.34375 -16.539062 2.882812 -16.632812 3.25 -16.625 L 3.8125 -16.609375 L 4.046875 -13.734375 C 3.941406 -13.753906 3.800781 -13.765625 3.625 -13.765625 C 3.445312 -13.765625 3.128906 -13.710938 2.671875 -13.609375 C 2.210938 -13.515625 1.785156 -13.347656 1.390625 -13.109375 C 0.765625 -12.734375 0.269531 -12.296875 -0.09375 -11.796875 C -0.46875 -11.296875 -0.695312 -10.789062 -0.78125 -10.28125 C -0.875 -9.78125 -0.878906 -9.289062 -0.796875 -8.8125 C -0.722656 -8.34375 -0.566406 -7.914062 -0.328125 -7.53125 C 0.179688 -6.675781 0.96875 -6.101562 2.03125 -5.8125 C 3.09375 -5.519531 4.222656 -5.738281 5.421875 -6.46875 Z M 5.421875 -6.46875 "/></g></g></g><g fill="#112b4a" fill-opacity="1"><g transform="translate(256.111986, 271.539206)"><g><path d="M -6.1875 -8.578125 L -7.75 -10.703125 L -0.28125 -16.21875 L 1.28125 -14.09375 L -1.234375 -12.21875 L 5.046875 -3.71875 L 2.625 -1.9375 L -3.65625 -10.4375 Z M -6.1875 -8.578125 "/></g></g></g><g fill="#112b4a" fill-opacity="1"><g transform="translate(263.890845, 265.700805)"><g><path d="M -5.421875 -12.671875 L 3.046875 -2.546875 L 0.734375 -0.609375 L -7.734375 -10.734375 Z M -5.421875 -12.671875 "/></g></g></g><g fill="#112b4a" fill-opacity="1"><g transform="translate(267.938202, 262.485028)"><g><path d="M 3.65625 -3.546875 L -9.53125 -9.15625 L -7.09375 -11.515625 L 1.34375 -7.609375 L -2.328125 -16.15625 L 0.109375 -18.515625 L 5.34375 -5.1875 Z M 3.65625 -3.546875 "/></g></g></g><g fill="#112b4a" fill-opacity="1"><g transform="translate(277.083105, 253.477361)"><g><path d="M -4.5 -15.0625 L -2.5 -13.34375 L -5.453125 -9.890625 L -3.453125 -8.171875 L -0.625 -11.46875 L 1.375 -9.75 L -1.453125 -6.453125 L 0.578125 -4.734375 L 3.53125 -8.1875 L 5.53125 -6.46875 L 0.625 -0.71875 L -9.40625 -9.3125 Z M -4.5 -15.0625 "/></g></g></g><g clip-path="url(#d8c524806f)"><g clip-path="url(#fc9735a9ae)"><path fill="#112b4a" d="M 277.558594 205.75 L 316.386719 205.75 L 316.386719 244.578125 L 277.558594 244.578125 Z M 277.558594 205.75 " fill-opacity="1" fill-rule="nonzero"/></g></g><g clip-path="url(#0ed3c8143a)"><g clip-path="url(#49d93e13a1)"><g clip-path="url(#3b4dcb72fc)"><path fill="#112b4a" d="M 296.972656 197.707031 L 324.425781 225.164062 L 296.972656 252.621094 L 269.515625 225.164062 Z M 296.972656 197.707031 " fill-opacity="1" fill-rule="nonzero"/></g></g></g><g clip-path="url(#31ac792fab)"><g clip-path="url(#a2168ff73b)"><path fill="#112b4a" d="M 58.613281 205.75 L 97.441406 205.75 L 97.441406 244.578125 L 58.613281 244.578125 Z M 58.613281 205.75 " fill-opacity="1" fill-rule="nonzero"/></g></g><g clip-path="url(#c17adab9f9)"><g clip-path="url(#bb6ec2f0e1)"><g clip-path="url(#b06c7cdd3a)"><path fill="#112b4a" d="M 78.023438 197.707031 L 105.480469 225.164062 L 78.023438 252.621094 L 50.570312 225.164062 Z M 78.023438 197.707031 " fill-opacity="1" fill-rule="nonzero"/></g></g></g><g clip-path="url(#4423887949)"><path fill="#112b4a" d="M 282.804688 127.757812 C 286.449219 132.101562 288.015625 136.976562 284.691406 143.058594 C 279.984375 137.972656 280.304688 132.863281 282.804688 127.757812 Z M 281.660156 119.640625 C 287.148438 121.125 291.214844 124.238281 291.9375 131.125 C 285.175781 129.644531 282.527344 125.257812 281.660156 119.640625 Z M 280.9375 119.789062 C 282.296875 125.300781 281.53125 130.363281 275.851562 134.324219 C 273.902344 127.695312 276.445312 123.265625 280.9375 119.789062 Z M 278.246094 109.425781 C 283.671875 110.234375 287.890625 112.753906 289.371094 119.238281 C 282.742188 118.582031 279.730469 114.703125 278.246094 109.425781 Z M 277.589844 109.640625 C 279.496094 114.769531 279.351562 119.683594 274.371094 124.113281 C 271.742188 117.988281 273.671875 113.476562 277.589844 109.640625 Z M 273.140625 99.785156 C 278.480469 99.914062 282.890625 101.84375 285.113281 107.945312 C 278.609375 108.113281 275.21875 104.722656 273.140625 99.785156 Z M 272.527344 100.082031 C 275.003906 104.808594 275.449219 109.597656 271.171875 114.492188 C 267.886719 108.898438 269.199219 104.277344 272.527344 100.082031 Z M 266.488281 91.011719 C 271.742188 90.441406 276.320312 91.777344 279.285156 97.496094 C 272.90625 98.492188 269.136719 95.589844 266.488281 91.011719 Z M 265.914062 91.375 C 268.945312 95.695312 270.003906 100.359375 266.421875 105.71875 C 262.480469 100.613281 263.179688 95.90625 265.914062 91.375 Z M 258.433594 83.277344 C 263.625 82.027344 268.371094 82.769531 272.082031 88.109375 C 265.828125 89.929688 261.675781 87.515625 258.433594 83.277344 Z M 257.90625 83.722656 C 261.507812 87.664062 263.160156 92.175781 260.277344 98.003906 C 255.679688 93.429688 255.765625 88.617188 257.90625 83.722656 Z M 92.191406 127.757812 C 94.691406 132.863281 95.011719 137.972656 90.328125 143.058594 C 87 136.976562 88.546875 132.101562 92.191406 127.757812 Z M 93.335938 119.640625 C 92.46875 125.257812 89.816406 129.644531 83.058594 131.125 C 83.800781 124.238281 87.847656 121.125 93.335938 119.640625 Z M 94.054688 119.789062 C 98.550781 123.265625 101.113281 127.695312 99.144531 134.324219 C 93.460938 130.363281 92.699219 125.300781 94.054688 119.789062 Z M 96.746094 109.425781 C 95.285156 114.703125 92.253906 118.582031 85.625 119.238281 C 87.105469 112.753906 91.34375 110.234375 96.746094 109.425781 Z M 97.425781 109.640625 C 101.324219 113.476562 103.253906 117.988281 100.648438 124.113281 C 95.667969 119.683594 95.5 114.769531 97.425781 109.640625 Z M 101.855469 99.785156 C 99.800781 104.722656 96.40625 108.113281 89.902344 107.945312 C 92.128906 101.84375 96.515625 99.914062 101.855469 99.785156 Z M 102.488281 100.082031 C 105.796875 104.277344 107.109375 108.898438 103.828125 114.492188 C 99.566406 109.597656 100.011719 104.808594 102.488281 100.082031 Z M 108.53125 91.011719 C 105.859375 95.589844 102.089844 98.492188 95.710938 97.496094 C 98.675781 91.777344 103.253906 90.441406 108.53125 91.011719 Z M 109.101562 91.375 C 111.816406 95.90625 112.535156 100.613281 108.570312 105.71875 C 105.011719 100.359375 106.050781 95.695312 109.101562 91.375 Z M 116.582031 83.277344 C 113.320312 87.515625 109.164062 89.929688 102.933594 88.109375 C 106.644531 82.769531 111.390625 82.027344 116.582031 83.277344 Z M 117.113281 83.722656 C 119.230469 88.617188 119.335938 93.429688 114.71875 98.003906 C 111.835938 92.175781 113.488281 87.664062 117.113281 83.722656 Z M 187.785156 76.898438 C 202.679688 76.898438 216.941406 79.867188 230.144531 85.269531 L 234.785156 70.921875 C 220.164062 64.949219 204.3125 61.683594 187.785156 61.683594 C 171.253906 61.683594 155.402344 64.949219 140.78125 70.921875 L 145.445312 85.269531 C 158.625 79.867188 172.886719 76.898438 187.785156 76.898438 Z M 234.425781 77.832031 C 240.253906 80.355469 245.847656 83.382812 251.207031 86.839844 L 248.707031 76.03125 L 260.765625 75.394531 C 253.921875 70.734375 246.671875 66.75 239.085938 63.484375 L 232.03125 60.5625 L 236.839844 70.351562 Z M 135.929688 64.398438 C 128.34375 67.660156 121.074219 71.667969 114.230469 76.304688 L 126.289062 76.941406 L 123.808594 87.75 C 129.148438 84.292969 134.761719 81.285156 140.589844 78.742188 L 138.15625 71.261719 L 144.089844 61.707031 L 135.929688 64.398438 " fill-opacity="1" fill-rule="evenodd"/></g><g fill="#ffffff" fill-opacity="1"><g transform="translate(152.513554, 76.925864)"><g><path d="M 0.71875 -8.203125 C 1.09375 -8.328125 1.484375 -8.394531 1.890625 -8.40625 C 2.304688 -8.414062 2.617188 -8.394531 2.828125 -8.34375 L 3.125 -8.28125 L 2.90625 -6.78125 C 2.84375 -6.789062 2.753906 -6.804688 2.640625 -6.828125 C 2.535156 -6.859375 2.34375 -6.875 2.0625 -6.875 C 1.789062 -6.875 1.546875 -6.835938 1.328125 -6.765625 C 1.054688 -6.679688 0.867188 -6.5625 0.765625 -6.40625 C 0.660156 -6.25 0.640625 -6.070312 0.703125 -5.875 C 0.734375 -5.78125 0.796875 -5.703125 0.890625 -5.640625 C 0.984375 -5.578125 1.125 -5.523438 1.3125 -5.484375 C 1.507812 -5.453125 1.679688 -5.425781 1.828125 -5.40625 C 1.972656 -5.394531 2.203125 -5.375 2.515625 -5.34375 C 3.023438 -5.3125 3.492188 -5.175781 3.921875 -4.9375 C 4.359375 -4.707031 4.644531 -4.390625 4.78125 -3.984375 C 4.914062 -3.578125 4.960938 -3.195312 4.921875 -2.84375 C 4.878906 -2.5 4.753906 -2.195312 4.546875 -1.9375 C 4.347656 -1.6875 4.109375 -1.460938 3.828125 -1.265625 C 3.554688 -1.078125 3.242188 -0.925781 2.890625 -0.8125 C 2.585938 -0.707031 2.273438 -0.640625 1.953125 -0.609375 C 1.640625 -0.578125 1.363281 -0.570312 1.125 -0.59375 C 0.894531 -0.625 0.6875 -0.65625 0.5 -0.6875 C 0.3125 -0.726562 0.171875 -0.773438 0.078125 -0.828125 L -0.078125 -0.859375 L 0.28125 -2.484375 C 0.363281 -2.441406 0.476562 -2.398438 0.625 -2.359375 C 0.78125 -2.316406 1.035156 -2.269531 1.390625 -2.21875 C 1.742188 -2.164062 2.039062 -2.179688 2.28125 -2.265625 C 2.945312 -2.492188 3.203125 -2.835938 3.046875 -3.296875 C 3.015625 -3.390625 2.960938 -3.46875 2.890625 -3.53125 C 2.816406 -3.601562 2.707031 -3.660156 2.5625 -3.703125 C 2.414062 -3.742188 2.285156 -3.769531 2.171875 -3.78125 C 2.066406 -3.800781 1.890625 -3.820312 1.640625 -3.84375 C 1.390625 -3.875 1.207031 -3.90625 1.09375 -3.9375 C 0.59375 -4 0.175781 -4.148438 -0.15625 -4.390625 C -0.5 -4.628906 -0.734375 -4.929688 -0.859375 -5.296875 C -1.066406 -5.921875 -1.003906 -6.507812 -0.671875 -7.0625 C -0.347656 -7.625 0.113281 -8.003906 0.71875 -8.203125 Z M 0.71875 -8.203125 "/></g></g></g><g fill="#ffffff" fill-opacity="1"><g transform="translate(158.176661, 75.037693)"><g><path d="M 4.0625 -5.28125 C 4.601562 -4.9375 4.960938 -4.429688 5.140625 -3.765625 C 5.316406 -3.097656 5.253906 -2.476562 4.953125 -1.90625 C 4.660156 -1.34375 4.191406 -0.972656 3.546875 -0.796875 C 2.960938 -0.640625 2.429688 -0.695312 1.953125 -0.96875 L 2.671875 1.71875 L 1.140625 2.125 L -0.65625 -4.59375 L 0.84375 -5 L 0.96875 -4.5 L 1 -4.5 C 1.269531 -5.03125 1.695312 -5.375 2.28125 -5.53125 C 2.925781 -5.707031 3.519531 -5.625 4.0625 -5.28125 Z M 3.40625 -2.484375 C 3.550781 -2.742188 3.582031 -3.023438 3.5 -3.328125 C 3.425781 -3.640625 3.265625 -3.867188 3.015625 -4.015625 C 2.773438 -4.160156 2.5 -4.1875 2.1875 -4.09375 C 1.882812 -4.019531 1.660156 -3.859375 1.515625 -3.609375 C 1.367188 -3.359375 1.335938 -3.082031 1.421875 -2.78125 C 1.492188 -2.476562 1.660156 -2.25 1.921875 -2.09375 C 2.179688 -1.945312 2.457031 -1.910156 2.75 -1.984375 C 3.039062 -2.066406 3.257812 -2.234375 3.40625 -2.484375 Z M 3.40625 -2.484375 "/></g></g></g><g fill="#ffffff" fill-opacity="1"><g transform="translate(164.05259, 73.485144)"><g><path d="M 0.53125 -0.109375 L -0.421875 -4.625 L 1.140625 -4.96875 L 1.265625 -4.3125 L 1.28125 -4.3125 C 1.289062 -4.332031 1.300781 -4.363281 1.3125 -4.40625 C 1.332031 -4.445312 1.375 -4.519531 1.4375 -4.625 C 1.507812 -4.738281 1.585938 -4.84375 1.671875 -4.9375 C 1.765625 -5.03125 1.882812 -5.117188 2.03125 -5.203125 C 2.175781 -5.285156 2.332031 -5.34375 2.5 -5.375 C 2.675781 -5.414062 2.847656 -5.429688 3.015625 -5.421875 C 3.191406 -5.421875 3.328125 -5.398438 3.421875 -5.359375 L 3.546875 -5.328125 L 3.1875 -3.859375 C 2.945312 -3.972656 2.65625 -3.992188 2.3125 -3.921875 C 2.125 -3.878906 1.972656 -3.804688 1.859375 -3.703125 C 1.742188 -3.597656 1.664062 -3.476562 1.625 -3.34375 C 1.59375 -3.207031 1.578125 -3.097656 1.578125 -3.015625 C 1.578125 -2.929688 1.582031 -2.875 1.59375 -2.84375 L 2.09375 -0.453125 Z M 0.53125 -0.109375 "/></g></g></g><g fill="#ffffff" fill-opacity="1"><g transform="translate(168.393023, 72.575552)"><g><path d="M -0.5625 -7.203125 C -0.414062 -7.421875 -0.21875 -7.550781 0.03125 -7.59375 C 0.289062 -7.632812 0.523438 -7.578125 0.734375 -7.421875 C 0.953125 -7.273438 1.082031 -7.078125 1.125 -6.828125 C 1.175781 -6.578125 1.125 -6.34375 0.96875 -6.125 C 0.820312 -5.90625 0.617188 -5.773438 0.359375 -5.734375 C 0.109375 -5.691406 -0.117188 -5.742188 -0.328125 -5.890625 C -0.546875 -6.046875 -0.675781 -6.25 -0.71875 -6.5 C -0.769531 -6.75 -0.71875 -6.984375 -0.5625 -7.203125 Z M -0.265625 -4.640625 L 0.53125 -0.09375 L 2.109375 -0.375 L 1.3125 -4.921875 Z M -0.265625 -4.640625 "/></g></g></g><g fill="#ffffff" fill-opacity="1"><g transform="translate(171.008618, 72.078407)"><g><path d="M 0.546875 -0.078125 L -0.0625 -4.640625 L 1.515625 -4.84375 L 1.578125 -4.375 L 1.59375 -4.375 C 1.9375 -4.832031 2.34375 -5.09375 2.8125 -5.15625 C 3.039062 -5.1875 3.265625 -5.1875 3.484375 -5.15625 C 3.710938 -5.132812 3.941406 -5.070312 4.171875 -4.96875 C 4.398438 -4.875 4.59375 -4.71875 4.75 -4.5 C 4.90625 -4.289062 5.003906 -4.035156 5.046875 -3.734375 L 5.453125 -0.71875 L 3.875 -0.515625 L 3.53125 -3.109375 C 3.5 -3.335938 3.394531 -3.53125 3.21875 -3.6875 C 3.039062 -3.851562 2.828125 -3.921875 2.578125 -3.890625 C 2.335938 -3.859375 2.132812 -3.734375 1.96875 -3.515625 C 1.8125 -3.304688 1.75 -3.09375 1.78125 -2.875 L 2.125 -0.28125 Z M 0.546875 -0.078125 "/></g></g></g><g fill="#ffffff" fill-opacity="1"><g transform="translate(176.827643, 71.298187)"><g><path d="M 0.40625 1.109375 L 1.671875 0.375 C 1.941406 0.757812 2.375 0.925781 2.96875 0.875 C 3.226562 0.863281 3.472656 0.757812 3.703125 0.5625 C 3.929688 0.363281 4.03125 0.0820312 4 -0.28125 L 3.96875 -0.625 C 3.71875 -0.289062 3.234375 -0.0976562 2.515625 -0.046875 C 1.847656 0.00390625 1.28125 -0.1875 0.8125 -0.625 C 0.34375 -1.070312 0.0820312 -1.632812 0.03125 -2.3125 C -0.0195312 -2.988281 0.148438 -3.578125 0.546875 -4.078125 C 0.953125 -4.585938 1.488281 -4.867188 2.15625 -4.921875 C 2.738281 -4.960938 3.238281 -4.816406 3.65625 -4.484375 L 3.6875 -4.484375 L 3.65625 -4.890625 L 5.25 -5 L 5.609375 -0.28125 C 5.660156 0.46875 5.453125 1.0625 4.984375 1.5 C 4.515625 1.945312 3.878906 2.195312 3.078125 2.25 C 1.753906 2.351562 0.863281 1.972656 0.40625 1.109375 Z M 1.984375 -3.234375 C 1.796875 -3.023438 1.710938 -2.757812 1.734375 -2.4375 C 1.753906 -2.125 1.867188 -1.875 2.078125 -1.6875 C 2.296875 -1.5 2.5625 -1.414062 2.875 -1.4375 C 3.1875 -1.457031 3.429688 -1.578125 3.609375 -1.796875 C 3.796875 -2.023438 3.878906 -2.289062 3.859375 -2.59375 C 3.835938 -2.914062 3.710938 -3.164062 3.484375 -3.34375 C 3.265625 -3.53125 3.007812 -3.613281 2.71875 -3.59375 C 2.414062 -3.570312 2.171875 -3.453125 1.984375 -3.234375 Z M 1.984375 -3.234375 "/></g></g></g><g fill="#ffffff" fill-opacity="1"><g transform="translate(182.897843, 70.882536)"><g><path d="M 0.6875 -4.625 L 0.65625 -5.609375 C 0.644531 -6.304688 0.789062 -6.863281 1.09375 -7.28125 C 1.394531 -7.707031 1.832031 -7.929688 2.40625 -7.953125 C 2.644531 -7.953125 2.875 -7.921875 3.09375 -7.859375 C 3.320312 -7.796875 3.484375 -7.734375 3.578125 -7.671875 L 3.734375 -7.578125 L 3.203125 -6.4375 C 3.054688 -6.507812 2.894531 -6.546875 2.71875 -6.546875 C 2.519531 -6.535156 2.390625 -6.460938 2.328125 -6.328125 C 2.273438 -6.191406 2.25 -5.953125 2.25 -5.609375 L 2.28125 -4.671875 L 3.34375 -4.703125 L 3.375 -3.5 L 2.3125 -3.46875 L 2.40625 -0.0625 L 0.8125 -0.015625 L 0.71875 -3.421875 L 0.046875 -3.40625 L 0.015625 -4.609375 Z M 0.6875 -4.625 "/></g></g></g><g fill="#ffffff" fill-opacity="1"><g transform="translate(186.231721, 70.796676)"><g><path d="M 0.703125 -7.1875 C 0.890625 -7.375 1.113281 -7.46875 1.375 -7.46875 C 1.632812 -7.46875 1.851562 -7.375 2.03125 -7.1875 C 2.21875 -7 2.3125 -6.773438 2.3125 -6.515625 C 2.3125 -6.265625 2.21875 -6.046875 2.03125 -5.859375 C 1.851562 -5.671875 1.632812 -5.578125 1.375 -5.578125 C 1.113281 -5.578125 0.890625 -5.671875 0.703125 -5.859375 C 0.515625 -6.046875 0.421875 -6.265625 0.421875 -6.515625 C 0.421875 -6.773438 0.515625 -7 0.703125 -7.1875 Z M 0.5625 -4.609375 L 0.546875 0 L 2.140625 0 L 2.15625 -4.609375 Z M 0.5625 -4.609375 "/></g></g></g><g fill="#ffffff" fill-opacity="1"><g transform="translate(188.897138, 70.775756)"><g><path d="M 5.3125 -1.875 L 1.953125 -2.015625 C 1.929688 -1.691406 2.023438 -1.445312 2.234375 -1.28125 C 2.441406 -1.113281 2.664062 -1.023438 2.90625 -1.015625 C 3.164062 -1.003906 3.375 -1.03125 3.53125 -1.09375 C 3.6875 -1.15625 3.859375 -1.28125 4.046875 -1.46875 L 5.1875 -0.859375 C 4.675781 -0.0664062 3.863281 0.300781 2.75 0.25 C 2.050781 0.226562 1.460938 -0.03125 0.984375 -0.53125 C 0.503906 -1.03125 0.273438 -1.613281 0.296875 -2.28125 C 0.328125 -2.957031 0.601562 -3.523438 1.125 -3.984375 C 1.644531 -4.441406 2.253906 -4.660156 2.953125 -4.640625 C 3.679688 -4.609375 4.265625 -4.367188 4.703125 -3.921875 C 5.140625 -3.484375 5.34375 -2.867188 5.3125 -2.078125 C 5.3125 -1.972656 5.3125 -1.90625 5.3125 -1.875 Z M 2.03125 -2.890625 L 3.78125 -2.8125 C 3.757812 -3.050781 3.675781 -3.238281 3.53125 -3.375 C 3.382812 -3.507812 3.191406 -3.582031 2.953125 -3.59375 C 2.679688 -3.613281 2.460938 -3.554688 2.296875 -3.421875 C 2.140625 -3.285156 2.050781 -3.109375 2.03125 -2.890625 Z M 2.03125 -2.890625 "/></g></g></g><g fill="#ffffff" fill-opacity="1"><g transform="translate(194.264802, 71.029604)"><g><path d="M 0.546875 0.046875 L 1.171875 -7.65625 L 2.765625 -7.53125 L 2.140625 0.171875 Z M 0.546875 0.046875 "/></g></g></g><g fill="#ffffff" fill-opacity="1"><g transform="translate(196.875492, 71.20536)"><g><path d="M 0.90625 -0.453125 C 0.539062 -0.972656 0.398438 -1.570312 0.484375 -2.25 C 0.578125 -2.925781 0.863281 -3.472656 1.34375 -3.890625 C 1.832031 -4.316406 2.410156 -4.488281 3.078125 -4.40625 C 3.679688 -4.332031 4.15625 -4.078125 4.5 -3.640625 L 4.953125 -7.171875 L 6.53125 -6.96875 L 5.5625 0.703125 L 4 0.5 L 4.0625 -0.015625 L 4.046875 -0.015625 C 3.597656 0.367188 3.070312 0.523438 2.46875 0.453125 C 1.800781 0.367188 1.28125 0.0664062 0.90625 -0.453125 Z M 2.578125 -2.78125 C 2.347656 -2.613281 2.210938 -2.367188 2.171875 -2.046875 C 2.140625 -1.734375 2.207031 -1.460938 2.375 -1.234375 C 2.550781 -1.003906 2.800781 -0.867188 3.125 -0.828125 C 3.425781 -0.785156 3.6875 -0.859375 3.90625 -1.046875 C 4.132812 -1.234375 4.265625 -1.476562 4.296875 -1.78125 C 4.335938 -2.101562 4.265625 -2.375 4.078125 -2.59375 C 3.898438 -2.820312 3.671875 -2.953125 3.390625 -2.984375 C 3.078125 -3.023438 2.804688 -2.957031 2.578125 -2.78125 Z M 2.578125 -2.78125 "/></g></g></g><g fill="#ffffff" fill-opacity="1"><g transform="translate(202.909854, 71.995421)"><g><path d="M 1.875 -1.625 C 2.15625 -1.570312 2.375 -1.429688 2.53125 -1.203125 C 2.695312 -0.984375 2.757812 -0.726562 2.71875 -0.4375 C 2.5625 0.4375 1.921875 1.195312 0.796875 1.84375 L 0.390625 1.40625 C 0.429688 1.375 0.488281 1.328125 0.5625 1.265625 C 0.644531 1.203125 0.765625 1.078125 0.921875 0.890625 C 1.085938 0.703125 1.207031 0.492188 1.28125 0.265625 C 1.0625 0.179688 0.894531 0.046875 0.78125 -0.140625 C 0.675781 -0.335938 0.644531 -0.550781 0.6875 -0.78125 C 0.726562 -1.070312 0.863281 -1.296875 1.09375 -1.453125 C 1.332031 -1.617188 1.59375 -1.675781 1.875 -1.625 Z M 1.875 -1.625 "/></g></g></g><g fill="#ffffff" fill-opacity="1"><g transform="translate(205.968444, 72.525912)"><g/></g></g><g fill="#ffffff" fill-opacity="1"><g transform="translate(208.326434, 72.912961)"><g><path d="M 6.46875 1.65625 L 7.21875 -2.6875 L 7.171875 -2.703125 L 4.625 1.140625 L 3.640625 0.890625 L 3.265625 -3.703125 L 3.21875 -3.71875 L 1.78125 0.453125 L 0.140625 0.03125 L 2.625 -6.984375 L 4.375 -6.546875 L 4.890625 -1.984375 L 7.5625 -5.71875 L 9.3125 -5.28125 L 8.109375 2.078125 Z M 6.46875 1.65625 "/></g></g></g><g fill="#ffffff" fill-opacity="1"><g transform="translate(216.472323, 75.044855)"><g><path d="M 1.09375 -0.203125 C 0.75 -0.804688 0.6875 -1.445312 0.90625 -2.125 C 1.132812 -2.800781 1.578125 -3.269531 2.234375 -3.53125 C 2.890625 -3.789062 3.585938 -3.800781 4.328125 -3.5625 C 5.066406 -3.3125 5.613281 -2.882812 5.96875 -2.28125 C 6.320312 -1.675781 6.382812 -1.035156 6.15625 -0.359375 C 5.9375 0.304688 5.507812 0.773438 4.875 1.046875 C 4.238281 1.328125 3.539062 1.335938 2.78125 1.078125 C 2 0.816406 1.4375 0.390625 1.09375 -0.203125 Z M 3.078125 -2.21875 C 2.816406 -2.09375 2.632812 -1.878906 2.53125 -1.578125 C 2.4375 -1.273438 2.453125 -0.992188 2.578125 -0.734375 C 2.703125 -0.484375 2.914062 -0.3125 3.21875 -0.21875 C 3.519531 -0.113281 3.796875 -0.128906 4.046875 -0.265625 C 4.296875 -0.398438 4.46875 -0.609375 4.5625 -0.890625 C 4.664062 -1.203125 4.648438 -1.488281 4.515625 -1.75 C 4.390625 -2.007812 4.1875 -2.1875 3.90625 -2.28125 C 3.613281 -2.375 3.335938 -2.351562 3.078125 -2.21875 Z M 3.078125 -2.21875 "/></g></g></g></svg>