<svg xmlns="http://www.w3.org/2000/svg" xmlns:xlink="http://www.w3.org/1999/xlink" width="500" zoomAndPan="magnify" viewBox="0 0 375 374.999991" height="500" preserveAspectRatio="xMidYMid meet" version="1.0"><defs><g/><clipPath id="8c626ec874"><path d="M 100 100 L 275 100 L 275 275 L 100 275 Z M 100 100 " clip-rule="nonzero"/></clipPath><clipPath id="f971d68503"><path d="M 14.386719 187.496094 L 187.5 14.378906 L 360.617188 187.496094 L 187.5 360.613281 Z M 14.386719 187.496094 " clip-rule="nonzero"/></clipPath><clipPath id="523de6b089"><path d="M 100.945312 100.9375 L 187.5 132.410156 L 274.058594 100.9375 L 242.585938 187.496094 L 274.058594 274.054688 L 187.5 242.582031 L 100.945312 274.054688 L 132.417969 187.496094 Z M 100.945312 100.9375 " clip-rule="nonzero"/></clipPath><clipPath id="61ad566f22"><path d="M 46.980469 40.351562 L 328.019531 40.351562 L 328.019531 321.390625 L 46.980469 321.390625 Z M 46.980469 40.351562 " clip-rule="nonzero"/></clipPath><clipPath id="176605ce4a"><path d="M 187.5 40.351562 L 232.214844 136.15625 L 328.019531 180.871094 L 232.214844 225.582031 L 187.5 321.390625 L 142.785156 225.582031 L 46.980469 180.871094 L 142.785156 136.15625 Z M 187.5 40.351562 " clip-rule="nonzero"/></clipPath><clipPath id="c22ef68a28"><path d="M 51.984375 45.59375 L 323.015625 45.59375 L 323.015625 316.621094 L 51.984375 316.621094 Z M 51.984375 45.59375 " clip-rule="nonzero"/></clipPath><clipPath id="ec7aa46dd1"><path d="M 187.5 45.59375 L 230.621094 137.984375 L 323.015625 181.105469 L 230.621094 224.226562 L 187.5 316.621094 L 144.378906 224.226562 L 51.984375 181.105469 L 144.378906 137.984375 Z M 187.5 45.59375 " clip-rule="nonzero"/></clipPath><clipPath id="ddfc4e6093"><path d="M 104 104 L 271 104 L 271 271 L 104 271 Z M 104 104 " clip-rule="nonzero"/></clipPath><clipPath id="aa4074c71e"><path d="M 20.550781 187.5 L 187.5 20.550781 L 354.449219 187.5 L 187.5 354.449219 Z M 20.550781 187.5 " clip-rule="nonzero"/></clipPath><clipPath id="6061dba62d"><path d="M 104.027344 104.023438 L 187.5 134.375 L 270.976562 104.023438 L 240.625 187.5 L 270.976562 270.972656 L 187.5 240.621094 L 104.027344 270.972656 L 134.378906 187.5 Z M 104.027344 104.023438 " clip-rule="nonzero"/></clipPath></defs><g clip-path="url(#8c626ec874)"><g clip-path="url(#f971d68503)"><g clip-path="url(#523de6b089)"><path fill="#000000" d="M 14.386719 187.496094 L 187.5 14.378906 L 360.617188 187.496094 L 187.5 360.613281 Z M 14.386719 187.496094 " fill-opacity="1" fill-rule="nonzero"/></g></g></g><g clip-path="url(#61ad566f22)"><g clip-path="url(#176605ce4a)"><path fill="#000000" d="M 46.980469 40.351562 L 328.019531 40.351562 L 328.019531 321.390625 L 46.980469 321.390625 Z M 46.980469 40.351562 " fill-opacity="1" fill-rule="nonzero"/></g></g><g clip-path="url(#c22ef68a28)"><g clip-path="url(#ec7aa46dd1)"><path fill="#003761" d="M 51.984375 45.59375 L 323.015625 45.59375 L 323.015625 316.621094 L 51.984375 316.621094 Z M 51.984375 45.59375 " fill-opacity="1" fill-rule="nonzero"/></g></g><g clip-path="url(#ddfc4e6093)"><g clip-path="url(#aa4074c71e)"><g clip-path="url(#6061dba62d)"><path fill="#003761" d="M 20.550781 187.5 L 187.5 20.550781 L 354.449219 187.5 L 187.5 354.449219 Z M 20.550781 187.5 " fill-opacity="1" fill-rule="nonzero"/></g></g></g><path stroke-linecap="butt" transform="matrix(1.287829, -0.218451, 0.218451, 1.287829, 0.606612, 135.183903)" fill="none" stroke-linejoin="miter" d="M 18.510502 16.810306 C 17.739762 16.418712 16.877994 16.224002 15.934544 16.224727 C 14.988145 16.224952 14.127225 16.418636 13.344888 16.810675 C 12.570448 17.191921 11.913076 17.723452 11.363927 18.403769 C 10.827072 19.083139 10.369957 19.900395 9.993081 20.852591 C 9.620653 21.796442 9.343365 22.823161 9.161215 23.932749 C 8.991359 25.04139 8.9034 26.221553 8.903734 27.471291 C 8.905627 29.033713 9.052857 30.490361 9.348372 31.841734 C 9.654233 33.185762 10.092794 34.373341 10.661107 35.40397 C 11.232368 36.435099 11.965023 37.247915 12.865467 37.84047 C 13.769861 38.427628 14.79408 38.719659 15.934676 38.71901 C 17.075271 38.71836 18.095269 38.427299 18.992721 37.839429 C 19.897071 37.246662 20.635387 36.43464 21.207669 35.403362 C 21.777004 34.371584 22.208632 33.186019 22.506501 31.84127 C 22.811268 30.491626 22.964429 29.034368 22.962536 27.471945 C 22.96515 26.222708 22.874154 25.042521 22.695445 23.932385 C 22.522633 22.82325 22.247814 21.796908 21.874436 20.85091 C 21.499111 19.898515 21.039812 19.083536 20.491142 18.402024 C 19.953766 17.725462 19.292087 17.191608 18.510502 16.810306 Z M 11.926903 12.921198 C 13.199617 12.624473 14.53533 12.474929 15.933539 12.475513 C 17.331748 12.476097 18.662673 12.622995 19.928764 12.919655 C 21.202251 13.20847 22.349539 13.615406 23.374077 14.138014 C 24.404512 14.661622 25.354027 15.286767 26.219673 16.012946 C 27.088266 16.739626 27.837663 17.543149 28.470312 18.426964 C 29.10446 19.301934 29.637655 20.23561 30.076291 21.226043 C 30.521825 22.21158 30.852716 23.229234 31.070911 24.285403 C 31.290606 25.332728 31.398659 26.394479 31.400966 27.471659 C 31.400876 28.5272 31.293145 29.573581 31.083669 30.611803 C 30.872245 31.643629 30.553232 32.648105 30.124181 33.621782 C 29.694629 34.598408 29.174283 35.520201 28.563143 36.387161 C 27.954951 37.254621 27.22848 38.050454 26.386181 38.778107 C 25.550278 39.503813 24.635979 40.137356 23.643783 40.67579 C 22.658985 41.206379 21.550117 41.627959 20.317179 41.940531 C 19.090137 42.254103 17.802047 42.426892 16.449959 42.458396 L 15.464097 45.749023 C 15.964268 45.858131 16.454436 46.026207 16.928705 46.25225 C 17.414767 46.480293 17.80993 46.689884 18.113194 46.88692 C 18.416957 47.081007 18.827467 47.25377 19.342275 47.401759 C 19.866428 47.548301 20.448309 47.622738 21.08792 47.625071 C 21.612992 47.623141 22.077649 47.601864 22.483391 47.552394 C 22.179674 47.000396 22.027035 46.398195 22.02792 45.749239 C 22.025008 44.711388 22.390882 43.824057 23.116194 43.088692 C 23.8518 42.364173 24.73583 41.998483 25.776129 41.99902 C 26.813479 41.999057 27.697863 42.36443 28.424382 43.088243 C 29.158246 43.822401 29.526384 44.709879 29.525847 45.750178 C 29.524276 46.295888 29.412667 46.810801 29.184624 47.296863 C 28.967874 47.787875 28.656933 48.208311 28.260147 48.562621 C 27.924381 48.896949 27.615307 49.181208 27.332926 49.415397 C 27.051992 49.658931 26.712539 49.907704 26.314066 50.164665 C 25.917042 50.430972 25.519674 50.645656 25.118515 50.811165 C 24.720804 50.974226 24.252384 51.107094 23.713256 51.209768 C 23.182474 51.316892 22.620864 51.373288 22.026479 51.37256 C 21.08008 51.372785 20.235136 51.311356 19.482801 51.186772 C 18.741759 51.067138 18.112913 50.911937 17.596762 50.718222 C 17.082559 50.530903 16.587599 50.31955 16.108934 50.083662 C 15.632717 49.851222 15.120619 49.615729 14.575089 49.380632 C 14.029059 49.148483 13.422509 48.933367 12.758387 48.735784 C 12.101609 48.548546 11.254479 48.392717 10.216995 48.268296 C 9.184407 48.150772 8.014485 48.091849 6.700831 48.093475 L 9.290021 41.180179 C 7.884695 40.577813 6.620519 39.787065 5.495545 38.801539 C 4.371571 37.810115 3.444557 36.712575 2.717451 35.509416 C 1.991846 34.297412 1.433611 33.010671 1.043748 31.643293 C 0.659782 30.276917 0.468117 28.885529 0.468253 27.472077 C 0.468895 26.395398 0.576678 25.330826 0.7965 24.285259 C 1.014873 23.230347 1.342284 22.212129 1.782181 21.228159 C 2.226527 20.235843 2.764115 19.301809 3.397895 18.426556 C 4.029726 17.544907 4.778836 16.740781 5.648171 16.014681 C 6.514558 15.28808 7.457841 14.662486 8.483916 14.138899 C 9.51294 13.615812 10.661585 13.210078 11.926903 12.921198 Z M 11.926903 12.921198 " stroke="#000000" stroke-width="3.599947" stroke-opacity="1" stroke-miterlimit="4"/><path stroke-linecap="butt" transform="matrix(1.296184, -0.161648, 0.161648, 1.296184, 43.283253, 127.967876)" fill="none" stroke-linejoin="miter" d="M 19.21449 12.944708 L 31.398987 12.942346 L 31.398572 16.69128 L 27.649269 16.693833 L 27.649598 32.156932 C 27.649531 33.220743 27.537431 34.240446 27.310333 35.215671 C 27.082864 36.193864 26.713319 37.127215 26.198729 38.015355 C 25.690814 38.8983 25.061204 39.669632 24.31064 40.323415 C 23.568608 40.981275 22.638478 41.504173 21.522849 41.895446 C 20.405363 42.277446 19.166901 42.469567 17.807833 42.468842 C 14.8575 42.46857 12.44155 42.049744 10.568514 41.21644 C 8.693992 40.370896 7.323814 39.130173 6.455753 37.487967 C 5.588433 35.839826 5.15571 33.751645 5.154989 31.220086 L 5.155667 16.691345 L 1.406364 16.693898 L 1.406778 12.944965 L 16.402883 12.943656 L 16.402468 16.692589 L 12.653534 16.692175 L 12.652856 31.220915 C 12.651986 32.07367 12.717121 32.856302 12.841215 33.576973 C 12.974582 34.295787 13.145382 34.907763 13.356212 35.416241 C 13.568152 35.915816 13.825702 36.363819 14.12849 36.763218 C 14.435356 37.154085 14.751474 37.470764 15.080181 37.710659 C 15.405551 37.953151 15.757245 38.15372 16.132665 38.309031 C 16.516987 38.465451 16.880153 38.574028 17.221793 38.63773 C 17.56751 38.692899 17.916928 38.718393 18.278579 38.71829 C 19.191425 38.720626 20.007782 38.554219 20.726541 38.227972 C 21.452715 37.890594 22.043466 37.430851 22.496198 36.845403 C 22.955975 36.251792 23.304447 35.559919 23.538276 34.77238 C 23.77952 33.97371 23.900193 33.102745 23.900295 32.159484 L 23.900335 16.693418 L 19.214076 16.693642 Z M 19.21449 12.944708 " stroke="#000000" stroke-width="3.599947" stroke-opacity="1" stroke-miterlimit="4"/><path stroke-linecap="butt" transform="matrix(1.301833, -0.10702, 0.10702, 1.301833, 87.384726, 122.55309)" fill="none" stroke-linejoin="miter" d="M 1.406883 12.944347 L 26.713906 12.942374 L 26.714454 22.31622 L 22.495542 22.31746 L 22.496673 20.442193 C 22.495251 20.058002 22.461533 19.665156 22.390049 19.257202 C 22.327262 18.852964 22.22524 18.451501 22.083981 18.052814 C 21.951664 17.654862 21.756349 17.329747 21.50077 17.080692 C 21.242945 16.822452 20.947517 16.693145 20.620444 16.693262 L 12.653978 16.692485 L 12.652592 27.002352 L 16.871259 27.004091 L 16.870019 22.785179 L 20.620798 22.784462 L 20.621261 34.96984 L 16.870482 34.970558 L 16.872222 30.75189 L 12.653309 30.753131 L 12.654989 38.251709 L 21.089588 38.251964 C 21.416661 38.251846 21.709072 38.125856 21.966578 37.876973 C 22.224818 37.619148 22.419899 37.290119 22.554556 36.893111 C 22.695418 36.493612 22.797535 36.090927 22.857926 35.684813 C 22.930239 35.279679 22.962826 34.883281 22.964138 34.502316 L 22.96527 32.627048 L 27.181202 32.625563 L 27.181749 41.999408 L 1.406838 41.998925 L 1.405876 38.251126 L 5.156655 38.250409 L 5.155399 16.694164 L 1.404865 16.691901 Z M 1.406883 12.944347 " stroke="#000000" stroke-width="3.599947" stroke-opacity="1" stroke-miterlimit="4"/><path stroke-linecap="butt" transform="matrix(1.305044, -0.0555299, 0.0555299, 1.305044, 126.694611, 119.350802)" fill="none" stroke-linejoin="miter" d="M 1.407351 12.943175 L 26.711853 12.942337 L 26.714042 22.317115 L 22.496625 22.317255 L 22.495539 20.443469 C 22.493885 20.06027 22.459874 19.663721 22.390264 19.259671 C 22.326756 18.852887 22.227141 18.450554 22.085442 18.052416 C 21.952707 17.65466 21.757038 17.329055 21.498308 17.078591 C 21.24282 16.822278 20.949 16.693041 20.619708 16.693995 L 12.654846 16.69332 L 12.653224 27.001812 L 16.870641 27.001673 L 16.870501 22.784256 L 20.620933 22.785198 L 20.62027 34.970464 L 16.872826 34.969649 L 16.872686 30.752232 L 12.652281 30.752245 L 12.653511 38.250249 L 21.088345 38.24997 C 21.41751 38.252003 21.710185 38.12677 21.969232 37.877384 C 22.225672 37.618908 22.422293 37.289044 22.552991 36.890524 C 22.695641 36.492512 22.796589 36.089733 22.858695 35.685301 C 22.929892 35.278263 22.9646 34.884638 22.962946 34.501439 L 22.964848 32.62778 L 27.182265 32.62764 L 27.181593 41.999304 L 1.40712 42.001096 L 1.405074 38.250537 L 5.155507 38.251479 L 5.153981 16.691435 L 1.406409 16.693607 Z M 1.407351 12.943175 " stroke="#000000" stroke-width="3.599947" stroke-opacity="1" stroke-miterlimit="4"/><path stroke-linecap="butt" transform="matrix(1.306225, 0.00000000000000004, -0.00000000000000004, 1.306225, 166.214026, 117.641294)" fill="none" stroke-linejoin="miter" d="M 1.406155 12.942323 L 11.833989 12.942323 L 23.900611 27.144153 L 23.900611 16.692396 L 20.153529 16.692396 L 20.153529 12.942323 L 32.336779 12.942323 L 32.336779 16.692396 L 28.586707 16.692396 L 28.586707 42.000901 L 25.775647 42.000901 L 9.842324 23.253528 L 9.842324 38.250828 L 13.592397 38.250828 L 13.592397 42.000901 L 1.406155 42.000901 L 1.406155 38.250828 L 5.156228 38.250828 L 5.156228 16.692396 L 1.406155 16.692396 Z M 1.406155 12.942323 " stroke="#000000" stroke-width="3.599947" stroke-opacity="1" stroke-miterlimit="4"/><path stroke-linecap="butt" transform="matrix(1.303871, 0.0783839, -0.0783839, 1.303871, 228.762558, 118.283138)" fill="none" stroke-linejoin="miter" d="M 15.935409 12.474134 C 20.03392 12.476405 23.314096 13.567444 25.776477 15.756207 C 26.782625 16.645418 27.501666 17.5429 27.930613 18.448835 C 28.368157 19.34826 28.589128 20.482401 28.587375 21.848631 C 28.586959 22.888229 28.220727 23.773061 27.485876 24.506292 C 26.75962 25.233014 25.876784 25.59766 24.837185 25.597243 C 23.800573 25.596646 22.912935 25.23358 22.180242 24.507683 C 21.452982 23.772473 21.088157 22.886651 21.088574 21.847053 C 21.089647 21.316716 21.194367 20.816099 21.405898 20.348008 C 21.61689 19.870961 21.909623 19.457906 22.283916 19.105857 C 21.720802 18.06119 20.960167 17.318998 19.999026 16.879461 C 19.047021 16.442371 17.847515 16.22388 16.403493 16.223808 C 15.456792 16.223799 14.578472 16.414411 13.765728 16.798809 C 12.96176 17.179684 12.263005 17.716012 11.669285 18.404808 C 11.08434 19.090081 10.578934 19.90239 10.159037 20.841379 C 9.735975 21.777561 9.420507 22.809136 9.20947 23.933297 C 9.007029 25.05095 8.90406 26.228532 8.903905 27.471834 C 8.905659 28.697047 9.030634 29.878901 9.278471 31.011427 C 9.529292 32.143774 9.893775 33.173419 10.369114 34.103527 C 10.844453 35.033636 11.402526 35.844927 12.043512 36.540385 C 12.68396 37.226889 13.420272 37.763827 14.24612 38.145587 C 15.083908 38.52663 15.958332 38.719726 16.872017 38.718725 C 18.199262 38.719825 19.43315 38.364034 20.573861 37.654339 C 21.723348 36.94112 22.670173 35.946488 23.420125 34.667098 C 24.178495 33.378214 24.650751 31.914794 24.837251 30.282807 L 28.587506 31.21976 C 28.399908 32.135795 28.181317 32.984789 27.93227 33.775696 C 27.682685 34.557647 27.370055 35.337397 26.994557 36.11793 C 26.618701 36.892492 26.193402 37.592135 25.718662 38.216856 C 25.240936 38.841757 24.679741 39.423741 24.028927 39.960183 C 23.381278 40.49943 22.668544 40.952714 21.884754 41.320392 C 21.106395 41.678757 20.209578 41.960358 19.203258 42.164656 C 18.196759 42.36597 17.106366 42.467471 15.935065 42.46898 C 14.535998 42.469202 13.199782 42.318847 11.926773 42.023886 C 10.663078 41.734356 9.512148 41.3272 8.483116 40.804863 C 7.460055 40.282168 6.514654 39.655939 5.647094 38.929163 C 4.779713 38.205372 4.030415 37.402581 3.396752 36.529925 C 2.765356 35.645149 2.226971 34.712838 1.781238 33.727024 C 1.344281 32.737687 1.016337 31.717829 0.797585 30.670435 C 0.578475 29.617071 0.469454 28.551097 0.467538 27.472693 C 0.468607 26.394109 0.578575 25.332946 0.797263 24.286218 C 1.015413 23.230535 1.343538 22.210183 1.781819 21.228147 C 2.225353 20.233811 2.765551 19.30257 3.398892 18.425648 C 4.028889 17.542934 4.780509 16.73979 5.647602 16.013589 C 6.514696 15.287388 7.459712 14.661358 8.482831 14.138485 C 9.514906 13.615074 10.661981 13.210577 11.926683 12.918844 C 13.200161 12.623587 14.536343 12.474355 15.935409 12.474134 Z M 15.935409 12.474134 " stroke="#000000" stroke-width="3.599947" stroke-opacity="1" stroke-miterlimit="4"/><path stroke-linecap="butt" transform="matrix(1.300675, 0.120284, -0.120284, 1.300675, 268.45484, 120.812145)" fill="none" stroke-linejoin="miter" d="M 1.405895 12.943401 L 16.404165 12.943884 L 16.402417 16.692101 L 12.654476 16.693331 L 12.653912 38.250704 L 16.401853 38.249474 L 16.403359 42.000392 L 1.405089 41.999909 L 1.406836 38.251692 L 5.154777 38.250462 L 5.155341 16.693089 L 1.407125 16.691342 Z M 1.405895 12.943401 " stroke="#000000" stroke-width="3.599947" stroke-opacity="1" stroke-miterlimit="4"/><path stroke-linecap="butt" transform="matrix(1.296132, 0.16206, -0.16206, 1.296132, 292.834586, 122.962317)" fill="none" stroke-linejoin="miter" d="M 1.170481 12.944419 L 28.354422 12.942029 L 28.354364 22.317886 L 24.135098 22.318027 L 24.135777 20.443375 C 24.136135 20.060581 24.101626 19.664063 24.030024 19.260129 C 23.966953 18.852114 23.865307 18.448923 23.725084 18.050555 C 23.594134 17.654041 23.396792 17.329118 23.139362 17.07801 C 22.88119 16.820968 22.587784 16.691896 22.262484 16.693391 L 18.513179 16.692032 L 18.511302 38.249791 L 22.260606 38.251149 L 22.262215 42.000083 L 7.262772 42.000954 L 7.264131 38.251649 L 11.013064 38.250041 L 11.011974 16.692653 L 7.263041 16.694262 C 6.937369 16.692789 6.64323 16.822994 6.385817 17.078198 C 6.128033 17.330435 5.927374 17.653888 5.787177 18.051153 C 5.656254 18.450272 5.55278 18.851987 5.48306 19.258522 C 5.419274 19.664316 5.390355 20.059722 5.389997 20.442516 L 5.389318 22.317168 L 1.17302 22.316938 Z M 1.170481 12.944419 " stroke="#000000" stroke-width="3.599947" stroke-opacity="1" stroke-miterlimit="4"/><path stroke-linecap="butt" transform="matrix(1.288037, 0.21722, -0.21722, 1.288037, 332.700775, 127.928562)" fill="none" stroke-linejoin="miter" d="M 19.68333 12.942819 L 32.33603 12.944046 L 32.33734 16.692263 L 29.056176 16.693658 L 20.105568 29.005662 L 20.10565 38.249368 L 23.854364 38.251007 L 23.855674 41.999223 L 8.858864 41.999063 L 8.857554 38.250847 L 12.605771 38.249537 L 12.606404 28.866205 L 3.747828 16.6917 L 0.936666 16.692683 L 0.938304 12.943969 L 15.935114 12.944129 L 15.933475 16.692843 L 13.016119 16.693538 L 18.711044 24.531032 L 24.416133 16.693733 L 19.682189 16.694481 Z M 19.68333 12.942819 " stroke="#000000" stroke-width="3.599947" stroke-opacity="1" stroke-miterlimit="4"/><g fill="#5291c1" fill-opacity="1"><g transform="translate(9.781543, 189.272701)"><g><path d="M 18.359375 -36.5 C 17.273438 -36.832031 16.125 -36.894531 14.90625 -36.6875 C 13.6875 -36.476562 12.617188 -36.035156 11.703125 -35.359375 C 10.785156 -34.691406 10.050781 -33.859375 9.5 -32.859375 C 8.945312 -31.867188 8.53125 -30.722656 8.25 -29.421875 C 7.96875 -28.117188 7.835938 -26.734375 7.859375 -25.265625 C 7.878906 -23.796875 8.023438 -22.257812 8.296875 -20.65625 C 8.640625 -18.644531 9.148438 -16.800781 9.828125 -15.125 C 10.503906 -13.457031 11.320312 -12.019531 12.28125 -10.8125 C 13.238281 -9.613281 14.363281 -8.734375 15.65625 -8.171875 C 16.945312 -7.609375 18.328125 -7.453125 19.796875 -7.703125 C 21.265625 -7.953125 22.515625 -8.550781 23.546875 -9.5 C 24.578125 -10.457031 25.347656 -11.660156 25.859375 -13.109375 C 26.367188 -14.566406 26.671875 -16.195312 26.765625 -18 C 26.867188 -19.8125 26.75 -21.722656 26.40625 -23.734375 C 26.132812 -25.335938 25.765625 -26.832031 25.296875 -28.21875 C 24.828125 -29.613281 24.242188 -30.878906 23.546875 -32.015625 C 22.859375 -33.148438 22.09375 -34.097656 21.25 -34.859375 C 20.40625 -35.617188 19.441406 -36.164062 18.359375 -36.5 Z M 9 -40.046875 C 10.582031 -40.703125 12.269531 -41.179688 14.0625 -41.484375 C 15.863281 -41.796875 17.613281 -41.898438 19.3125 -41.796875 C 21.007812 -41.703125 22.578125 -41.429688 24.015625 -40.984375 C 25.453125 -40.535156 26.8125 -39.9375 28.09375 -39.1875 C 29.375 -38.445312 30.515625 -37.578125 31.515625 -36.578125 C 32.523438 -35.585938 33.421875 -34.503906 34.203125 -33.328125 C 34.984375 -32.148438 35.628906 -30.910156 36.140625 -29.609375 C 36.648438 -28.304688 37.023438 -26.960938 37.265625 -25.578125 C 37.492188 -24.210938 37.582031 -22.835938 37.53125 -21.453125 C 37.488281 -20.078125 37.296875 -18.710938 36.953125 -17.359375 C 36.609375 -16.015625 36.140625 -14.71875 35.546875 -13.46875 C 34.960938 -12.21875 34.207031 -11.03125 33.28125 -9.90625 C 32.351562 -8.78125 31.3125 -7.765625 30.15625 -6.859375 C 29.007812 -5.960938 27.675781 -5.175781 26.15625 -4.5 C 24.644531 -3.832031 23.019531 -3.335938 21.28125 -3.015625 L 20.734375 1.453125 C 21.410156 1.472656 22.078125 1.578125 22.734375 1.765625 C 23.398438 1.960938 23.945312 2.148438 24.375 2.328125 C 24.8125 2.515625 25.382812 2.644531 26.09375 2.71875 C 26.800781 2.800781 27.566406 2.769531 28.390625 2.625 C 29.066406 2.507812 29.664062 2.378906 30.1875 2.234375 C 29.65625 1.585938 29.316406 0.847656 29.171875 0.015625 C 28.953125 -1.328125 29.234375 -2.546875 30.015625 -3.640625 C 30.796875 -4.742188 31.851562 -5.40625 33.1875 -5.625 C 34.53125 -5.851562 35.75 -5.578125 36.84375 -4.796875 C 37.945312 -4.023438 38.609375 -2.96875 38.828125 -1.625 C 38.953125 -0.914062 38.921875 -0.222656 38.734375 0.453125 C 38.554688 1.128906 38.257812 1.738281 37.84375 2.28125 C 37.46875 2.789062 37.125 3.226562 36.8125 3.59375 C 36.507812 3.957031 36.128906 4.347656 35.671875 4.765625 C 35.222656 5.191406 34.757812 5.550781 34.28125 5.84375 C 33.800781 6.144531 33.226562 6.425781 32.5625 6.6875 C 31.894531 6.945312 31.175781 7.140625 30.40625 7.265625 C 29.195312 7.472656 28.097656 7.578125 27.109375 7.578125 C 26.117188 7.578125 25.269531 7.507812 24.5625 7.375 C 23.863281 7.25 23.179688 7.085938 22.515625 6.890625 C 21.847656 6.691406 21.132812 6.503906 20.375 6.328125 C 19.625 6.148438 18.800781 6.003906 17.90625 5.890625 C 17.007812 5.785156 15.882812 5.769531 14.53125 5.84375 C 13.175781 5.914062 11.648438 6.09375 9.953125 6.375 L 11.78125 -3.09375 C 9.84375 -3.550781 8.039062 -4.289062 6.375 -5.3125 C 4.707031 -6.34375 3.273438 -7.554688 2.078125 -8.953125 C 0.878906 -10.347656 -0.113281 -11.882812 -0.90625 -13.5625 C -1.707031 -15.238281 -2.265625 -16.992188 -2.578125 -18.828125 C -2.816406 -20.210938 -2.90625 -21.601562 -2.84375 -23 C -2.789062 -24.394531 -2.585938 -25.773438 -2.234375 -27.140625 C -1.878906 -28.515625 -1.390625 -29.835938 -0.765625 -31.109375 C -0.148438 -32.378906 0.632812 -33.578125 1.59375 -34.703125 C 2.550781 -35.828125 3.628906 -36.835938 4.828125 -37.734375 C 6.035156 -38.628906 7.425781 -39.398438 9 -40.046875 Z M 9 -40.046875 "/></g></g></g><g fill="#5291c1" fill-opacity="1"><g transform="translate(50.072452, 182.407607)"><g><path d="M 20.203125 -40.765625 L 36 -42.734375 L 36.609375 -37.890625 L 31.75 -37.28125 L 34.25 -17.234375 C 34.425781 -15.859375 34.445312 -14.519531 34.3125 -13.21875 C 34.175781 -11.914062 33.847656 -10.644531 33.328125 -9.40625 C 32.804688 -8.164062 32.113281 -7.0625 31.25 -6.09375 C 30.382812 -5.132812 29.257812 -4.3125 27.875 -3.625 C 26.488281 -2.9375 24.921875 -2.484375 23.171875 -2.265625 C 19.335938 -1.785156 16.132812 -1.9375 13.5625 -2.71875 C 11 -3.507812 9.023438 -4.898438 7.640625 -6.890625 C 6.253906 -8.890625 5.359375 -11.523438 4.953125 -14.796875 L 2.59375 -33.640625 L -2.265625 -33.046875 L -2.875 -37.890625 L 16.546875 -40.3125 L 17.15625 -35.46875 L 12.3125 -34.859375 L 14.671875 -16.015625 C 14.804688 -14.910156 15.015625 -13.898438 15.296875 -12.984375 C 15.578125 -12.078125 15.894531 -11.3125 16.25 -10.6875 C 16.601562 -10.070312 17.007812 -9.535156 17.46875 -9.078125 C 17.925781 -8.617188 18.382812 -8.253906 18.84375 -7.984375 C 19.3125 -7.722656 19.800781 -7.523438 20.3125 -7.390625 C 20.832031 -7.253906 21.320312 -7.175781 21.78125 -7.15625 C 22.238281 -7.132812 22.695312 -7.148438 23.15625 -7.203125 C 24.34375 -7.347656 25.378906 -7.695312 26.265625 -8.25 C 27.148438 -8.800781 27.835938 -9.492188 28.328125 -10.328125 C 28.828125 -11.160156 29.164062 -12.109375 29.34375 -13.171875 C 29.53125 -14.242188 29.546875 -15.394531 29.390625 -16.625 L 26.890625 -36.671875 L 20.8125 -35.921875 Z M 20.203125 -40.765625 "/></g></g></g><g fill="#5291c1" fill-opacity="1"><g transform="translate(91.879584, 177.230085)"><g><path d="M -1.265625 -37.984375 L 31.65625 -40.6875 L 32.65625 -28.484375 L 27.1875 -28.03125 L 26.984375 -30.46875 C 26.941406 -30.96875 26.851562 -31.476562 26.71875 -32 C 26.59375 -32.519531 26.421875 -33.03125 26.203125 -33.53125 C 25.984375 -34.039062 25.691406 -34.445312 25.328125 -34.75 C 24.960938 -35.0625 24.566406 -35.195312 24.140625 -35.15625 L 13.765625 -34.3125 L 14.859375 -20.890625 L 20.34375 -21.34375 L 19.890625 -26.828125 L 24.78125 -27.21875 L 26.09375 -11.359375 L 21.203125 -10.96875 L 20.75 -16.453125 L 15.265625 -16 L 16.0625 -6.234375 L 27.046875 -7.125 C 27.472656 -7.164062 27.84375 -7.363281 28.15625 -7.71875 C 28.46875 -8.082031 28.691406 -8.53125 28.828125 -9.0625 C 28.960938 -9.59375 29.050781 -10.125 29.09375 -10.65625 C 29.144531 -11.195312 29.148438 -11.71875 29.109375 -12.21875 L 28.90625 -14.65625 L 34.375 -15.109375 L 35.375 -2.90625 L 1.84375 -0.15625 L 1.4375 -5.03125 L 6.3125 -5.421875 L 4.015625 -33.5 L -0.859375 -33.109375 Z M -1.265625 -37.984375 "/></g></g></g><g fill="#5291c1" fill-opacity="1"><g transform="translate(129.026867, 174.162644)"><g><path d="M 0.234375 -38 L 33.25 -39.40625 L 33.765625 -27.171875 L 28.265625 -26.9375 L 28.15625 -29.375 C 28.132812 -29.875 28.066406 -30.382812 27.953125 -30.90625 C 27.847656 -31.4375 27.695312 -31.957031 27.5 -32.46875 C 27.300781 -32.988281 27.023438 -33.40625 26.671875 -33.71875 C 26.316406 -34.039062 25.925781 -34.191406 25.5 -34.171875 L 15.109375 -33.734375 L 15.6875 -20.28125 L 21.1875 -20.515625 L 20.953125 -26.015625 L 25.84375 -26.21875 L 26.515625 -10.3125 L 21.625 -10.109375 L 21.390625 -15.609375 L 15.890625 -15.375 L 16.3125 -5.59375 L 27.3125 -6.0625 C 27.738281 -6.082031 28.113281 -6.265625 28.4375 -6.609375 C 28.757812 -6.953125 29 -7.390625 29.15625 -7.921875 C 29.3125 -8.453125 29.421875 -8.984375 29.484375 -9.515625 C 29.546875 -10.046875 29.566406 -10.5625 29.546875 -11.0625 L 29.453125 -13.515625 L 34.953125 -13.75 L 35.46875 -1.515625 L 1.84375 -0.078125 L 1.640625 -4.96875 L 6.53125 -5.171875 L 5.328125 -33.3125 L 0.4375 -33.109375 Z M 0.234375 -38 "/></g></g></g><g fill="#5291c1" fill-opacity="1"><g transform="translate(166.214026, 172.50273)"><g><path d="M 1.84375 -37.953125 L 15.453125 -37.953125 L 31.21875 -19.40625 L 31.21875 -33.0625 L 26.328125 -33.0625 L 26.328125 -37.953125 L 42.234375 -37.953125 L 42.234375 -33.0625 L 37.34375 -33.0625 L 37.34375 0 L 33.671875 0 L 12.859375 -24.484375 L 12.859375 -4.890625 L 17.75 -4.890625 L 17.75 0 L 1.84375 0 L 1.84375 -4.890625 L 6.734375 -4.890625 L 6.734375 -33.0625 L 1.84375 -33.0625 Z M 1.84375 -37.953125 "/></g></g></g><g fill="#5291c1" fill-opacity="1"><g transform="translate(209.436793, 172.707816)"><g/></g></g><g fill="#5291c1" fill-opacity="1"><g transform="translate(225.470434, 173.045708)"><g><path d="M 23.09375 -37.25 C 28.4375 -36.925781 32.628906 -35.242188 35.671875 -32.203125 C 36.910156 -30.953125 37.773438 -29.722656 38.265625 -28.515625 C 38.765625 -27.316406 38.960938 -25.828125 38.859375 -24.046875 C 38.773438 -22.679688 38.226562 -21.550781 37.21875 -20.65625 C 36.207031 -19.769531 35.019531 -19.363281 33.65625 -19.4375 C 32.300781 -19.519531 31.175781 -20.0625 30.28125 -21.0625 C 29.394531 -22.070312 28.992188 -23.257812 29.078125 -24.625 C 29.117188 -25.3125 29.296875 -25.957031 29.609375 -26.5625 C 29.921875 -27.164062 30.335938 -27.679688 30.859375 -28.109375 C 30.203125 -29.503906 29.265625 -30.523438 28.046875 -31.171875 C 26.828125 -31.828125 25.28125 -32.210938 23.40625 -32.328125 C 22.175781 -32.398438 21.019531 -32.21875 19.9375 -31.78125 C 18.851562 -31.34375 17.894531 -30.703125 17.0625 -29.859375 C 16.238281 -29.015625 15.515625 -27.992188 14.890625 -26.796875 C 14.273438 -25.597656 13.785156 -24.273438 13.421875 -22.828125 C 13.066406 -21.390625 12.84375 -19.863281 12.75 -18.25 C 12.65625 -16.644531 12.726562 -15.097656 12.96875 -13.609375 C 13.207031 -12.117188 13.597656 -10.742188 14.140625 -9.484375 C 14.691406 -8.234375 15.351562 -7.128906 16.125 -6.171875 C 16.90625 -5.222656 17.820312 -4.46875 18.875 -3.90625 C 19.9375 -3.34375 21.054688 -3.023438 22.234375 -2.953125 C 23.972656 -2.847656 25.617188 -3.210938 27.171875 -4.046875 C 28.722656 -4.890625 30.035156 -6.117188 31.109375 -7.734375 C 32.191406 -9.359375 32.925781 -11.21875 33.3125 -13.3125 L 38.125 -11.8125 C 37.800781 -10.644531 37.445312 -9.554688 37.0625 -8.546875 C 36.675781 -7.546875 36.207031 -6.550781 35.65625 -5.5625 C 35.113281 -4.570312 34.503906 -3.691406 33.828125 -2.921875 C 33.148438 -2.148438 32.367188 -1.4375 31.484375 -0.78125 C 30.597656 -0.125 29.632812 0.40625 28.59375 0.8125 C 27.550781 1.226562 26.363281 1.53125 25.03125 1.71875 C 23.695312 1.90625 22.269531 1.953125 20.75 1.859375 C 18.925781 1.742188 17.191406 1.445312 15.546875 0.96875 C 13.910156 0.488281 12.445312 -0.128906 11.15625 -0.890625 C 9.863281 -1.660156 8.675781 -2.550781 7.59375 -3.5625 C 6.519531 -4.570312 5.609375 -5.675781 4.859375 -6.875 C 4.109375 -8.070312 3.484375 -9.332031 2.984375 -10.65625 C 2.484375 -11.976562 2.128906 -13.332031 1.921875 -14.71875 C 1.722656 -16.101562 1.664062 -17.5 1.75 -18.90625 C 1.832031 -20.320312 2.054688 -21.703125 2.421875 -23.046875 C 2.796875 -24.390625 3.3125 -25.691406 3.96875 -26.953125 C 4.625 -28.210938 5.394531 -29.382812 6.28125 -30.46875 C 7.164062 -31.5625 8.203125 -32.550781 9.390625 -33.4375 C 10.585938 -34.320312 11.875 -35.066406 13.25 -35.671875 C 14.625 -36.273438 16.148438 -36.71875 17.828125 -37 C 19.515625 -37.28125 21.269531 -37.363281 23.09375 -37.25 Z M 23.09375 -37.25 "/></g></g></g><g fill="#5291c1" fill-opacity="1"><g transform="translate(263.402894, 175.440484)"><g><path d="M 5.328125 -37.625 L 24.828125 -35.828125 L 24.375 -30.953125 L 19.5 -31.40625 L 16.90625 -3.359375 L 21.78125 -2.90625 L 21.328125 1.96875 L 1.828125 0.171875 L 2.28125 -4.703125 L 7.15625 -4.25 L 9.75 -32.296875 L 4.875 -32.75 Z M 5.328125 -37.625 "/></g></g></g><g fill="#5291c1" fill-opacity="1"><g transform="translate(286.028046, 177.39988)"><g><path d="M 6.21875 -37.46875 L 41.453125 -33.0625 L 39.9375 -20.921875 L 34.46875 -21.609375 L 34.78125 -24.03125 C 34.832031 -24.53125 34.847656 -25.046875 34.828125 -25.578125 C 34.816406 -26.117188 34.753906 -26.65625 34.640625 -27.1875 C 34.535156 -27.726562 34.332031 -28.1875 34.03125 -28.5625 C 33.726562 -28.9375 33.367188 -29.148438 32.953125 -29.203125 L 28.09375 -29.8125 L 24.609375 -1.859375 L 29.46875 -1.25 L 28.859375 3.609375 L 9.40625 1.171875 L 10.015625 -3.6875 L 14.890625 -3.078125 L 18.375 -31.03125 L 13.5 -31.640625 C 13.082031 -31.691406 12.6875 -31.570312 12.3125 -31.28125 C 11.945312 -30.988281 11.640625 -30.59375 11.390625 -30.09375 C 11.140625 -29.601562 10.941406 -29.097656 10.796875 -28.578125 C 10.648438 -28.066406 10.550781 -27.5625 10.5 -27.0625 L 10.1875 -24.640625 L 4.703125 -25.328125 Z M 6.21875 -37.46875 "/></g></g></g><g fill="#5291c1" fill-opacity="1"><g transform="translate(323.577536, 182.026103)"><g><path d="M 31.671875 -33.140625 L 47.953125 -30.40625 L 47.140625 -25.59375 L 42.921875 -26.296875 L 28.734375 -12.359375 L 26.71875 -0.453125 L 31.53125 0.359375 L 30.71875 5.1875 L 11.40625 1.921875 L 12.21875 -2.90625 L 17.046875 -2.09375 L 19.09375 -14.1875 L 10.328125 -31.796875 L 6.703125 -32.40625 L 7.515625 -37.21875 L 26.828125 -33.96875 L 26.015625 -29.15625 L 22.265625 -29.78125 L 27.890625 -18.4375 L 36.953125 -27.3125 L 30.859375 -28.328125 Z M 31.671875 -33.140625 "/></g></g></g><path stroke-linecap="butt" transform="matrix(1.306225, 0, 0, 1.306225, 120.300861, 185.410051)" fill="none" stroke-linejoin="miter" d="M 0.816343 15.999195 C 0.708685 15.873594 0.624951 15.718089 0.559161 15.53866 C 0.49636 15.35624 0.463465 15.167839 0.463465 14.976448 C 0.816343 14.976448 1.064553 14.916638 1.208097 14.800009 C 1.35164 14.68338 1.426402 14.474046 1.426402 14.174997 L 1.426402 6.656908 C 1.426402 6.357859 1.35164 6.145535 1.208097 6.022925 C 1.064553 5.900315 0.816343 5.840505 0.463465 5.840505 C 0.463465 5.658085 0.49636 5.475665 0.559161 5.296236 C 0.624951 5.113816 0.708685 4.958311 0.816343 4.83271 L 4.703978 4.83271 C 4.808645 4.958311 4.895369 5.113816 4.958169 5.296236 C 5.02097 5.475665 5.053865 5.658085 5.053865 5.840505 C 4.703978 5.840505 4.455767 5.900315 4.312224 6.022925 C 4.16868 6.145535 4.096909 6.357859 4.096909 6.656908 L 4.096909 14.174997 C 4.096909 14.474046 4.16868 14.68338 4.312224 14.800009 C 4.455767 14.916638 4.703978 14.976448 5.053865 14.976448 C 5.053865 15.167839 5.02097 15.35624 4.958169 15.53866 C 4.895369 15.718089 4.808645 15.873594 4.703978 15.999195 Z M 8.8787 14.174997 C 8.8787 14.719266 9.267464 14.9914 10.047981 14.9914 C 10.047981 15.365211 9.925371 15.700146 9.680151 15.999195 L 6.351737 15.999195 C 6.118479 15.712108 6.00185 15.374183 6.00185 14.9914 C 6.372671 14.9914 6.650786 14.9286 6.833206 14.800009 C 7.015626 14.674408 7.10534 14.465074 7.10534 14.174997 L 7.10534 6.656908 C 7.10534 6.112639 6.716577 5.840505 5.933069 5.840505 C 5.933069 5.658085 5.965964 5.475665 6.031755 5.296236 C 6.097546 5.113816 6.181279 4.958311 6.288937 4.83271 L 8.51087 4.83271 C 8.821881 4.83271 9.129901 4.95233 9.437921 5.191569 C 9.748932 5.430808 10.042 5.765743 10.320116 6.190392 L 13.953559 11.938111 L 13.953559 6.656908 C 13.953559 6.366831 13.857864 6.157497 13.663482 6.031896 C 13.472091 5.903305 13.187994 5.840505 12.817174 5.840505 C 12.817174 5.646123 12.847078 5.463703 12.909879 5.290255 C 12.975669 5.110826 13.065384 4.958311 13.185004 4.83271 L 16.59117 4.83271 C 16.707799 4.958311 16.797514 5.113816 16.863305 5.296236 C 16.929095 5.475665 16.961991 5.658085 16.961991 5.840505 C 16.597151 5.840505 16.322026 5.903305 16.133625 6.031896 C 15.948215 6.157497 15.85551 6.366831 15.85551 6.656908 L 15.85551 16.097881 L 15.215545 16.097881 C 14.69221 16.097881 14.306437 16.03209 14.064207 15.897518 C 13.818987 15.762946 13.582739 15.529688 13.358452 15.197744 L 8.8787 8.397373 Z M 26.639212 4.641319 C 26.80967 5.01214 26.944242 5.69098 27.036947 6.671861 C 27.132643 7.652741 27.183481 8.460173 27.183481 9.091166 C 27.042928 9.142004 26.827613 9.183871 26.534545 9.219757 C 26.241477 9.249662 25.978314 9.264614 25.745056 9.264614 C 25.679265 8.412325 25.574598 7.754418 25.431055 7.296873 C 25.287511 6.839328 25.093129 6.525327 24.844919 6.354869 C 24.602689 6.184411 24.282707 6.097687 23.887962 6.097687 L 23.615828 6.097687 L 23.615828 14.112196 C 23.615828 14.411245 23.753391 14.629551 24.028515 14.770104 C 24.309621 14.907666 24.734271 14.976448 25.311435 14.976448 C 25.311435 15.167839 25.27854 15.35624 25.212749 15.53866 C 25.149949 15.718089 25.060234 15.873594 24.943605 15.999195 L 19.503906 15.999195 C 19.396249 15.873594 19.309524 15.718089 19.243734 15.53866 C 19.180933 15.35624 19.151028 15.167839 19.151028 14.976448 C 20.356195 14.976448 20.960274 14.689361 20.960274 14.112196 L 20.960274 6.097687 L 20.607396 6.097687 C 19.488954 6.097687 18.843008 7.153329 18.66956 9.264614 C 17.924928 9.231719 17.44645 9.171909 17.234125 9.091166 C 17.234125 8.460173 17.278983 7.652741 17.374678 6.671861 C 17.470374 5.69098 17.604946 5.01214 17.775404 4.641319 C 18.265844 4.641319 18.702455 4.704119 19.088228 4.83271 L 25.326388 4.83271 C 25.733094 4.704119 26.169705 4.641319 26.639212 4.641319 Z M 36.893598 12.625924 C 36.893598 12.975811 36.806873 13.603813 36.636416 14.50395 C 36.465958 15.404088 36.313443 15.990223 36.17588 16.256377 C 36.005422 16.21451 35.781136 16.127786 35.50302 15.999195 L 28.098571 15.999195 C 27.85036 15.679212 27.724759 15.344278 27.724759 14.9914 C 28.089599 14.9914 28.358743 14.9286 28.52621 14.800009 C 28.699659 14.674408 28.783392 14.459093 28.783392 14.160044 L 28.783392 6.656908 C 28.783392 6.366831 28.702649 6.157497 28.535182 6.031896 C 28.370705 5.903305 28.107542 5.840505 27.745693 5.840505 C 27.745693 5.487627 27.868303 5.152692 28.113523 4.83271 L 34.318787 4.83271 C 34.501207 4.745986 34.713531 4.680195 34.95277 4.632347 C 35.19201 4.5845 35.413306 4.557585 35.616659 4.557585 C 35.775155 4.868596 35.948603 5.296236 36.137004 5.840505 C 36.322414 6.384774 36.41811 6.779518 36.41811 7.024738 C 36.286528 7.141367 36.068223 7.263977 35.757212 7.395559 C 35.449192 7.521159 35.183038 7.607884 34.961742 7.64975 C 34.821189 7.252016 34.602883 6.9111 34.303834 6.624013 C 34.004786 6.336926 33.657889 6.190392 33.266135 6.190392 L 31.456889 6.190392 L 31.456889 9.566654 L 32.608227 9.566654 C 33.302021 9.566654 33.648917 9.17789 33.648917 8.397373 C 34.127396 8.397373 34.558026 8.511011 34.943799 8.735298 L 34.943799 11.710834 C 34.773341 11.818492 34.575969 11.902225 34.351682 11.962035 C 34.127396 12.018854 33.897128 12.045769 33.66387 12.045769 C 33.66387 11.642053 33.568174 11.340013 33.373792 11.13666 C 33.185392 10.933307 32.934191 10.83163 32.62318 10.83163 L 31.456889 10.83163 L 31.456889 14.593665 L 33.388745 14.593665 C 33.840309 14.593665 34.229072 14.405264 34.558026 14.028463 C 34.88997 13.64568 35.096314 13.179164 35.183038 12.625924 Z M 46.511009 13.535032 C 46.627638 13.941739 46.780153 14.243778 46.968554 14.44115 C 47.156955 14.635532 47.399184 14.755152 47.695243 14.800009 L 47.695243 15.60146 C 47.450022 15.942375 46.986497 16.112833 46.304665 16.112833 C 45.664701 16.112833 45.159308 16.005176 44.791478 15.792851 C 44.426638 15.580526 44.154504 15.29942 43.975075 14.952524 C 43.798636 14.605627 43.637149 14.151073 43.487625 13.58587 C 43.329129 12.954877 43.158671 12.431542 42.976251 12.015864 C 42.793832 11.600186 42.560574 11.343004 42.273487 11.247308 L 41.214854 11.247308 L 41.214854 14.174997 C 41.214854 14.453112 41.31653 14.659456 41.519884 14.794028 C 41.723237 14.925609 41.98939 14.9914 42.321334 14.9914 C 42.321334 15.374183 42.201715 15.712108 41.968457 15.999195 L 37.952231 15.999195 C 37.70701 15.700146 37.5844 15.365211 37.5844 14.9914 C 37.94625 14.9914 38.209413 14.9286 38.373889 14.800009 C 38.541357 14.674408 38.625091 14.465074 38.625091 14.174997 L 38.625091 6.656908 C 38.625091 6.366831 38.538366 6.157497 38.367908 6.031896 C 38.197451 5.903305 37.931297 5.840505 37.566458 5.840505 C 37.566458 5.412865 37.674115 5.07793 37.88644 4.83271 C 38.592195 4.83271 39.381684 4.811777 40.257897 4.76991 C 41.026453 4.725053 41.627541 4.704119 42.061162 4.704119 C 45.114451 4.704119 46.6396 5.732847 46.6396 7.793294 C 46.6396 9.36031 45.808244 10.314276 44.145533 10.655192 C 44.624011 10.795745 45.081555 11.127689 45.518167 11.657005 C 45.957769 12.186322 46.286722 12.811334 46.511009 13.535032 Z M 41.920609 10.143818 C 42.560574 10.143818 43.059985 9.946446 43.421834 9.54572 C 43.786674 9.144995 43.969094 8.615678 43.969094 7.95179 C 43.969094 7.269958 43.810598 6.761575 43.496597 6.426641 C 43.179605 6.088715 42.683184 5.921248 41.998362 5.921248 C 41.636513 5.921248 41.37634 5.942181 41.214854 5.984048 L 41.214854 10.113913 C 41.406245 10.134847 41.642494 10.143818 41.920609 10.143818 Z M 57.231911 13.88791 C 57.339568 14.228825 57.521988 14.494979 57.77618 14.68637 C 58.030371 14.880752 58.302506 14.976448 58.592583 14.976448 C 58.592583 15.167839 58.559688 15.35624 58.493897 15.53866 C 58.431097 15.718089 58.341382 15.873594 58.224753 15.999195 L 53.888545 15.999195 C 53.771915 15.873594 53.682201 15.718089 53.61641 15.53866 C 53.55361 15.35624 53.520714 15.167839 53.520714 14.976448 C 54.127784 14.976448 54.432813 14.719266 54.432813 14.207892 C 54.432813 13.992577 54.393937 13.744366 54.319175 13.457279 L 54.22647 13.122345 L 50.637883 13.122345 L 50.545178 13.457279 C 50.449483 13.789224 50.401635 14.022482 50.401635 14.160044 C 50.401635 14.704313 50.74255 14.976448 51.424382 14.976448 C 51.424382 15.167839 51.391487 15.35624 51.325696 15.53866 C 51.262895 15.718089 51.173181 15.873594 51.056552 15.999195 L 47.485908 15.999195 C 47.369279 15.873594 47.279565 15.718089 47.216764 15.53866 C 47.150974 15.35624 47.121069 15.167839 47.121069 14.976448 C 47.420118 14.976448 47.692252 14.889723 47.937472 14.716275 C 48.179702 14.536846 48.362122 14.279664 48.478751 13.938748 L 51.1044 6.190392 C 50.67676 6.05283 50.138472 5.984048 49.486545 5.984048 C 49.486545 5.526504 49.615136 5.140731 49.872318 4.83271 L 54.256375 4.83271 Z M 53.873592 11.87232 L 52.737206 7.900952 C 52.641511 7.58396 52.518901 7.314816 52.369376 7.090529 L 50.990761 11.87232 Z M 65.18362 8.397373 C 65.087924 7.685636 64.893543 7.114453 64.600475 6.686813 C 64.307407 6.259173 63.930605 6.046849 63.47007 6.046849 C 62.821134 6.046849 62.300789 6.354869 61.918007 6.967919 C 61.535224 7.580969 61.343833 8.525964 61.343833 9.808883 C 61.343833 11.354966 61.639891 12.488361 62.237989 13.203088 C 62.836087 13.917815 63.610623 14.273683 64.561598 14.273683 C 65.019143 14.273683 65.42585 14.189949 65.775737 14.019491 C 66.128615 13.849033 66.376825 13.64269 66.52635 13.406441 C 66.654941 13.502137 66.762598 13.64568 66.846332 13.840062 C 66.933056 14.031453 66.974923 14.207892 66.974923 14.366388 C 66.974923 14.635532 66.83736 14.913647 66.565226 15.203725 C 66.293091 15.490812 65.901337 15.733041 65.389964 15.930414 C 64.87859 16.124795 64.286474 16.223481 63.616604 16.223481 C 62.677591 16.223481 61.822311 16.005176 61.050765 15.565574 C 60.276228 15.128963 59.660188 14.468065 59.196662 13.58587 C 58.739117 12.700686 58.51184 11.6271 58.51184 10.368105 C 58.51184 9.142004 58.718184 8.098324 59.136852 7.243044 C 59.55253 6.381783 60.135675 5.735838 60.886288 5.305207 C 61.636901 4.871587 62.516104 4.656271 63.517918 4.656271 C 63.754167 4.656271 64.023311 4.689167 64.319369 4.754957 C 64.618418 4.817758 64.881581 4.901491 65.102877 5.009149 C 65.264363 4.931396 65.497621 4.856634 65.808632 4.784862 C 66.116653 4.7101 66.355892 4.665243 66.52635 4.656271 C 66.83736 5.412865 66.989875 6.662889 66.989875 8.397373 Z M 76.768773 4.641319 C 76.939231 5.01214 77.070812 5.69098 77.166508 6.671861 C 77.262204 7.652741 77.310052 8.460173 77.310052 9.091166 C 77.172489 9.142004 76.957174 9.183871 76.661116 9.219757 C 76.371038 9.249662 76.107875 9.264614 75.871627 9.264614 C 75.808826 8.412325 75.704159 7.754418 75.560616 7.296873 C 75.417072 6.839328 75.22269 6.525327 74.97448 6.354869 C 74.72926 6.184411 74.409278 6.097687 74.017524 6.097687 L 73.742399 6.097687 L 73.742399 14.112196 C 73.742399 14.411245 73.882952 14.629551 74.158077 14.770104 C 74.436192 14.907666 74.863832 14.976448 75.438006 14.976448 C 75.438006 15.167839 75.408101 15.35624 75.34231 15.53866 C 75.27951 15.718089 75.189795 15.873594 75.073166 15.999195 L 69.630477 15.999195 C 69.522819 15.873594 69.439085 15.718089 69.373295 15.53866 C 69.310494 15.35624 69.277599 15.167839 69.277599 14.976448 C 70.485756 14.976448 71.086845 14.689361 71.086845 14.112196 L 71.086845 6.097687 L 70.736958 6.097687 C 69.615524 6.097687 68.969579 7.153329 68.799121 9.264614 C 68.054489 9.231719 67.576011 9.171909 67.360696 9.091166 C 67.360696 8.460173 67.408544 7.652741 67.501249 6.671861 C 67.596944 5.69098 67.731516 5.01214 67.904965 4.641319 C 68.392414 4.641319 68.832016 4.704119 69.217789 4.83271 L 75.455949 4.83271 C 75.859665 4.704119 76.299266 4.641319 76.768773 4.641319 Z M 78.258036 15.999195 C 78.150379 15.873594 78.063655 15.718089 77.997864 15.53866 C 77.935064 15.35624 77.905159 15.167839 77.905159 14.976448 C 78.258036 14.976448 78.503257 14.916638 78.6468 14.800009 C 78.793334 14.68338 78.865106 14.474046 78.865106 14.174997 L 78.865106 6.656908 C 78.865106 6.357859 78.793334 6.145535 78.6468 6.022925 C 78.503257 5.900315 78.258036 5.840505 77.905159 5.840505 C 77.905159 5.658085 77.935064 5.475665 77.997864 5.296236 C 78.063655 5.113816 78.150379 4.958311 78.258036 4.83271 L 82.142681 4.83271 C 82.250339 4.958311 82.334072 5.113816 82.396873 5.296236 C 82.462663 5.475665 82.495559 5.658085 82.495559 5.840505 C 82.142681 5.840505 81.894471 5.900315 81.753918 6.022925 C 81.610374 6.145535 81.538602 6.357859 81.538602 6.656908 L 81.538602 14.174997 C 81.538602 14.474046 81.610374 14.68338 81.753918 14.800009 C 81.894471 14.916638 82.142681 14.976448 82.495559 14.976448 C 82.495559 15.167839 82.462663 15.35624 82.396873 15.53866 C 82.334072 15.718089 82.250339 15.873594 82.142681 15.999195 Z M 93.425795 4.83271 C 93.593262 5.098864 93.679986 5.433798 93.679986 5.840505 C 93.306175 5.840505 93.013107 5.897324 92.800783 6.007972 C 92.585468 6.11862 92.432953 6.315993 92.334266 6.594108 L 89.615912 14.572732 C 89.424521 15.128963 89.203225 15.523707 88.952024 15.762946 C 88.703813 15.996204 88.341964 16.112833 87.869467 16.112833 L 87.373046 16.112833 L 83.646897 6.594108 C 83.54223 6.315993 83.386724 6.11862 83.183371 6.007972 C 82.983008 5.897324 82.695922 5.840505 82.31912 5.840505 C 82.31912 5.457722 82.405844 5.119797 82.576302 4.83271 L 87.313236 4.83271 C 87.504627 5.173626 87.600323 5.508561 87.600323 5.840505 C 87.301274 5.840505 87.068016 5.903305 86.900549 6.031896 C 86.736072 6.157497 86.655329 6.333935 86.655329 6.558222 C 86.655329 6.624013 86.688224 6.752604 86.754015 6.943995 L 88.096744 11.280204 L 88.578213 13.038611 L 89.056691 11.313099 L 90.33662 6.893157 C 90.378487 6.72569 90.402411 6.612051 90.402411 6.558222 C 90.402411 6.333935 90.321668 6.157497 90.160181 6.031896 C 90.001685 5.903305 89.765437 5.840505 89.457416 5.840505 C 89.457416 5.62519 89.475359 5.44277 89.511245 5.290255 C 89.550122 5.131759 89.618903 4.979244 89.714598 4.83271 Z M 102.621547 12.625924 C 102.621547 12.975811 102.534823 13.603813 102.364365 14.50395 C 102.193908 15.404088 102.041393 15.990223 101.90383 16.256377 C 101.733372 16.21451 101.509086 16.127786 101.23097 15.999195 L 93.82652 15.999195 C 93.57831 15.679212 93.4557 15.344278 93.4557 14.9914 C 93.817549 14.9914 94.086693 14.9286 94.25416 14.800009 C 94.427609 14.674408 94.514333 14.459093 94.514333 14.160044 L 94.514333 6.656908 C 94.514333 6.366831 94.430599 6.157497 94.263132 6.031896 C 94.098655 5.903305 93.835492 5.840505 93.473643 5.840505 C 93.473643 5.487627 93.596253 5.152692 93.841473 4.83271 L 100.046737 4.83271 C 100.229156 4.745986 100.441481 4.680195 100.68072 4.632347 C 100.919959 4.5845 101.141256 4.557585 101.344609 4.557585 C 101.503105 4.868596 101.676553 5.296236 101.864954 5.840505 C 102.053355 6.384774 102.14606 6.779518 102.14606 7.024738 C 102.014478 7.141367 101.796173 7.263977 101.485162 7.395559 C 101.177141 7.521159 100.913978 7.607884 100.689692 7.64975 C 100.549139 7.252016 100.330833 6.9111 100.031784 6.624013 C 99.732735 6.336926 99.385839 6.190392 98.994085 6.190392 L 97.184839 6.190392 L 97.184839 9.566654 L 98.336177 9.566654 C 99.029971 9.566654 99.376867 9.17789 99.376867 8.397373 C 99.855345 8.397373 100.288966 8.511011 100.671749 8.735298 L 100.671749 11.710834 C 100.501291 11.818492 100.303919 11.902225 100.079632 11.962035 C 99.855345 12.018854 99.625078 12.045769 99.39182 12.045769 C 99.39182 11.642053 99.296124 11.340013 99.101742 11.13666 C 98.913341 10.933307 98.66214 10.83163 98.35412 10.83163 L 97.184839 10.83163 L 97.184839 14.593665 L 99.119685 14.593665 C 99.568258 14.593665 99.957022 14.405264 100.285976 14.028463 C 100.61792 13.64568 100.824264 13.179164 100.910988 12.625924 Z M 102.621547 12.625924 " stroke="#000000" stroke-width="1.2" stroke-opacity="1" stroke-miterlimit="4"/><g fill="#ffffff" fill-opacity="1"><g transform="translate(120.300861, 206.309646)"><g><path d="M 1.0625 0 C 0.925781 -0.164062 0.816406 -0.367188 0.734375 -0.609375 C 0.648438 -0.847656 0.609375 -1.09375 0.609375 -1.34375 C 1.066406 -1.34375 1.390625 -1.414062 1.578125 -1.5625 C 1.765625 -1.71875 1.859375 -1.992188 1.859375 -2.390625 L 1.859375 -12.203125 C 1.859375 -12.597656 1.765625 -12.875 1.578125 -13.03125 C 1.390625 -13.195312 1.066406 -13.28125 0.609375 -13.28125 C 0.609375 -13.507812 0.648438 -13.742188 0.734375 -13.984375 C 0.816406 -14.222656 0.925781 -14.425781 1.0625 -14.59375 L 6.140625 -14.59375 C 6.285156 -14.425781 6.398438 -14.222656 6.484375 -13.984375 C 6.566406 -13.742188 6.609375 -13.507812 6.609375 -13.28125 C 6.148438 -13.28125 5.828125 -13.195312 5.640625 -13.03125 C 5.453125 -12.875 5.359375 -12.597656 5.359375 -12.203125 L 5.359375 -2.390625 C 5.359375 -1.992188 5.453125 -1.71875 5.640625 -1.5625 C 5.828125 -1.414062 6.148438 -1.34375 6.609375 -1.34375 C 6.609375 -1.09375 6.566406 -0.847656 6.484375 -0.609375 C 6.398438 -0.367188 6.285156 -0.164062 6.140625 0 Z M 1.0625 0 "/></g></g></g><g fill="#ffffff" fill-opacity="1"><g transform="translate(127.511226, 206.309646)"><g><path d="M 4.390625 -2.390625 C 4.390625 -1.671875 4.898438 -1.3125 5.921875 -1.3125 C 5.921875 -0.820312 5.757812 -0.382812 5.4375 0 L 1.09375 0 C 0.78125 -0.375 0.625 -0.8125 0.625 -1.3125 C 1.113281 -1.3125 1.472656 -1.394531 1.703125 -1.5625 C 1.941406 -1.726562 2.0625 -2.003906 2.0625 -2.390625 L 2.0625 -12.203125 C 2.0625 -12.921875 1.554688 -13.28125 0.546875 -13.28125 C 0.546875 -13.507812 0.585938 -13.742188 0.671875 -13.984375 C 0.753906 -14.222656 0.863281 -14.425781 1 -14.59375 L 3.90625 -14.59375 C 4.3125 -14.59375 4.71875 -14.4375 5.125 -14.125 C 5.53125 -13.8125 5.910156 -13.375 6.265625 -12.8125 L 11.015625 -5.3125 L 11.015625 -12.203125 C 11.015625 -12.585938 10.890625 -12.863281 10.640625 -13.03125 C 10.390625 -13.195312 10.019531 -13.28125 9.53125 -13.28125 C 9.53125 -13.53125 9.570312 -13.769531 9.65625 -14 C 9.738281 -14.226562 9.859375 -14.425781 10.015625 -14.59375 L 14.46875 -14.59375 C 14.625 -14.425781 14.742188 -14.222656 14.828125 -13.984375 C 14.910156 -13.742188 14.953125 -13.507812 14.953125 -13.28125 C 14.472656 -13.28125 14.109375 -13.195312 13.859375 -13.03125 C 13.617188 -12.863281 13.5 -12.585938 13.5 -12.203125 L 13.5 0.125 L 12.671875 0.125 C 11.984375 0.125 11.476562 0.0390625 11.15625 -0.125 C 10.84375 -0.300781 10.539062 -0.609375 10.25 -1.046875 L 4.390625 -9.9375 Z M 4.390625 -2.390625 "/></g></g></g><g fill="#ffffff" fill-opacity="1"><g transform="translate(142.642572, 206.309646)"><g><path d="M 12.453125 -14.84375 C 12.679688 -14.351562 12.859375 -13.46875 12.984375 -12.1875 C 13.109375 -10.90625 13.171875 -9.851562 13.171875 -9.03125 C 12.992188 -8.957031 12.710938 -8.898438 12.328125 -8.859375 C 11.941406 -8.816406 11.597656 -8.796875 11.296875 -8.796875 C 11.203125 -9.910156 11.0625 -10.765625 10.875 -11.359375 C 10.6875 -11.960938 10.429688 -12.375 10.109375 -12.59375 C 9.796875 -12.820312 9.378906 -12.9375 8.859375 -12.9375 L 8.515625 -12.9375 L 8.515625 -2.46875 C 8.515625 -2.070312 8.691406 -1.785156 9.046875 -1.609375 C 9.410156 -1.429688 9.96875 -1.34375 10.71875 -1.34375 C 10.71875 -1.09375 10.675781 -0.847656 10.59375 -0.609375 C 10.507812 -0.367188 10.394531 -0.164062 10.25 0 L 3.140625 0 C 2.992188 -0.164062 2.878906 -0.367188 2.796875 -0.609375 C 2.710938 -0.847656 2.671875 -1.09375 2.671875 -1.34375 C 4.242188 -1.34375 5.03125 -1.71875 5.03125 -2.46875 L 5.03125 -12.9375 L 4.578125 -12.9375 C 3.117188 -12.9375 2.273438 -11.554688 2.046875 -8.796875 C 1.066406 -8.835938 0.441406 -8.914062 0.171875 -9.03125 C 0.171875 -9.851562 0.234375 -10.90625 0.359375 -12.1875 C 0.484375 -13.46875 0.65625 -14.351562 0.875 -14.84375 C 1.519531 -14.84375 2.09375 -14.757812 2.59375 -14.59375 L 10.75 -14.59375 C 11.28125 -14.757812 11.847656 -14.84375 12.453125 -14.84375 Z M 12.453125 -14.84375 "/></g></g></g><g fill="#ffffff" fill-opacity="1"><g transform="translate(155.976544, 206.309646)"><g><path d="M 12.515625 -4.40625 C 12.515625 -3.945312 12.40625 -3.128906 12.1875 -1.953125 C 11.96875 -0.773438 11.765625 -0.015625 11.578125 0.328125 C 11.359375 0.273438 11.066406 0.164062 10.703125 0 L 1.03125 0 C 0.707031 -0.414062 0.546875 -0.851562 0.546875 -1.3125 C 1.015625 -1.3125 1.359375 -1.394531 1.578125 -1.5625 C 1.804688 -1.726562 1.921875 -2.007812 1.921875 -2.40625 L 1.921875 -12.203125 C 1.921875 -12.585938 1.8125 -12.863281 1.59375 -13.03125 C 1.382812 -13.195312 1.039062 -13.28125 0.5625 -13.28125 C 0.5625 -13.738281 0.722656 -14.175781 1.046875 -14.59375 L 9.15625 -14.59375 C 9.394531 -14.707031 9.671875 -14.796875 9.984375 -14.859375 C 10.296875 -14.921875 10.582031 -14.953125 10.84375 -14.953125 C 11.050781 -14.546875 11.273438 -13.984375 11.515625 -13.265625 C 11.765625 -12.554688 11.890625 -12.046875 11.890625 -11.734375 C 11.722656 -11.578125 11.4375 -11.414062 11.03125 -11.25 C 10.632812 -11.082031 10.289062 -10.96875 10 -10.90625 C 9.8125 -11.425781 9.519531 -11.875 9.125 -12.25 C 8.738281 -12.625 8.289062 -12.8125 7.78125 -12.8125 L 5.421875 -12.8125 L 5.421875 -8.40625 L 6.921875 -8.40625 C 7.828125 -8.40625 8.28125 -8.914062 8.28125 -9.9375 C 8.90625 -9.9375 9.46875 -9.785156 9.96875 -9.484375 L 9.96875 -5.609375 C 9.75 -5.460938 9.492188 -5.347656 9.203125 -5.265625 C 8.910156 -5.191406 8.609375 -5.15625 8.296875 -5.15625 C 8.296875 -5.6875 8.171875 -6.082031 7.921875 -6.34375 C 7.671875 -6.613281 7.34375 -6.75 6.9375 -6.75 L 5.421875 -6.75 L 5.421875 -1.84375 L 7.9375 -1.84375 C 8.53125 -1.84375 9.039062 -2.085938 9.46875 -2.578125 C 9.90625 -3.078125 10.175781 -3.6875 10.28125 -4.40625 Z M 12.515625 -4.40625 "/></g></g></g><g fill="#ffffff" fill-opacity="1"><g transform="translate(168.829829, 206.309646)"><g><path d="M 12.234375 -3.21875 C 12.378906 -2.6875 12.570312 -2.289062 12.8125 -2.03125 C 13.0625 -1.78125 13.382812 -1.625 13.78125 -1.5625 L 13.78125 -0.515625 C 13.457031 -0.078125 12.847656 0.140625 11.953125 0.140625 C 11.117188 0.140625 10.460938 0.00390625 9.984375 -0.265625 C 9.503906 -0.546875 9.148438 -0.910156 8.921875 -1.359375 C 8.691406 -1.816406 8.476562 -2.414062 8.28125 -3.15625 C 8.070312 -3.976562 7.847656 -4.660156 7.609375 -5.203125 C 7.367188 -5.742188 7.0625 -6.078125 6.6875 -6.203125 L 5.3125 -6.203125 L 5.3125 -2.390625 C 5.3125 -2.023438 5.441406 -1.753906 5.703125 -1.578125 C 5.972656 -1.398438 6.320312 -1.3125 6.75 -1.3125 C 6.75 -0.8125 6.597656 -0.375 6.296875 0 L 1.046875 0 C 0.722656 -0.382812 0.5625 -0.820312 0.5625 -1.3125 C 1.039062 -1.3125 1.382812 -1.394531 1.59375 -1.5625 C 1.8125 -1.726562 1.921875 -2.003906 1.921875 -2.390625 L 1.921875 -12.203125 C 1.921875 -12.585938 1.804688 -12.863281 1.578125 -13.03125 C 1.359375 -13.195312 1.015625 -13.28125 0.546875 -13.28125 C 0.546875 -13.832031 0.6875 -14.269531 0.96875 -14.59375 C 1.882812 -14.59375 2.914062 -14.617188 4.0625 -14.671875 C 5.0625 -14.734375 5.847656 -14.765625 6.421875 -14.765625 C 10.398438 -14.765625 12.390625 -13.414062 12.390625 -10.71875 C 12.390625 -8.675781 11.304688 -7.429688 9.140625 -6.984375 C 9.765625 -6.796875 10.363281 -6.359375 10.9375 -5.671875 C 11.507812 -4.984375 11.941406 -4.164062 12.234375 -3.21875 Z M 6.234375 -7.65625 C 7.066406 -7.65625 7.71875 -7.914062 8.1875 -8.4375 C 8.664062 -8.957031 8.90625 -9.648438 8.90625 -10.515625 C 8.90625 -11.410156 8.695312 -12.078125 8.28125 -12.515625 C 7.875 -12.953125 7.222656 -13.171875 6.328125 -13.171875 C 5.859375 -13.171875 5.519531 -13.144531 5.3125 -13.09375 L 5.3125 -7.6875 C 5.5625 -7.664062 5.867188 -7.65625 6.234375 -7.65625 Z M 6.234375 -7.65625 "/></g></g></g><g fill="#ffffff" fill-opacity="1"><g transform="translate(182.477302, 206.309646)"><g><path d="M 12.578125 -2.765625 C 12.722656 -2.316406 12.960938 -1.96875 13.296875 -1.71875 C 13.628906 -1.46875 13.984375 -1.34375 14.359375 -1.34375 C 14.359375 -1.09375 14.316406 -0.847656 14.234375 -0.609375 C 14.148438 -0.367188 14.03125 -0.164062 13.875 0 L 8.21875 0 C 8.0625 -0.164062 7.941406 -0.367188 7.859375 -0.609375 C 7.773438 -0.847656 7.734375 -1.09375 7.734375 -1.34375 C 8.523438 -1.34375 8.921875 -1.675781 8.921875 -2.34375 C 8.921875 -2.625 8.875 -2.953125 8.78125 -3.328125 L 8.65625 -3.765625 L 3.96875 -3.765625 L 3.84375 -3.328125 C 3.71875 -2.890625 3.65625 -2.582031 3.65625 -2.40625 C 3.65625 -1.695312 4.101562 -1.34375 5 -1.34375 C 5 -1.09375 4.957031 -0.847656 4.875 -0.609375 C 4.789062 -0.367188 4.671875 -0.164062 4.515625 0 L -0.140625 0 C -0.296875 -0.164062 -0.414062 -0.367188 -0.5 -0.609375 C -0.582031 -0.847656 -0.625 -1.09375 -0.625 -1.34375 C -0.238281 -1.34375 0.113281 -1.457031 0.4375 -1.6875 C 0.757812 -1.914062 1 -2.253906 1.15625 -2.703125 L 4.578125 -12.8125 C 4.023438 -13 3.320312 -13.09375 2.46875 -13.09375 C 2.46875 -13.6875 2.632812 -14.1875 2.96875 -14.59375 L 8.703125 -14.59375 Z M 8.1875 -5.390625 L 6.703125 -10.578125 C 6.578125 -10.992188 6.421875 -11.347656 6.234375 -11.640625 L 4.4375 -5.390625 Z M 8.1875 -5.390625 "/></g></g></g><g fill="#ffffff" fill-opacity="1"><g transform="translate(196.208367, 206.309646)"><g><path d="M 9.234375 -9.9375 C 9.109375 -10.863281 8.851562 -11.601562 8.46875 -12.15625 C 8.09375 -12.71875 7.601562 -13 7 -13 C 6.15625 -13 5.476562 -12.597656 4.96875 -11.796875 C 4.46875 -10.992188 4.21875 -9.757812 4.21875 -8.09375 C 4.21875 -6.070312 4.609375 -4.59375 5.390625 -3.65625 C 6.171875 -2.726562 7.179688 -2.265625 8.421875 -2.265625 C 9.023438 -2.265625 9.554688 -2.375 10.015625 -2.59375 C 10.472656 -2.8125 10.800781 -3.078125 11 -3.390625 C 11.164062 -3.265625 11.300781 -3.078125 11.40625 -2.828125 C 11.519531 -2.578125 11.578125 -2.34375 11.578125 -2.125 C 11.578125 -1.78125 11.398438 -1.421875 11.046875 -1.046875 C 10.691406 -0.671875 10.179688 -0.351562 9.515625 -0.09375 C 8.847656 0.164062 8.070312 0.296875 7.1875 0.296875 C 5.96875 0.296875 4.851562 0.0078125 3.84375 -0.5625 C 2.832031 -1.132812 2.023438 -2 1.421875 -3.15625 C 0.816406 -4.3125 0.515625 -5.710938 0.515625 -7.359375 C 0.515625 -8.960938 0.785156 -10.320312 1.328125 -11.4375 C 1.878906 -12.5625 2.644531 -13.40625 3.625 -13.96875 C 4.601562 -14.539062 5.75 -14.828125 7.0625 -14.828125 C 7.375 -14.828125 7.722656 -14.785156 8.109375 -14.703125 C 8.503906 -14.617188 8.847656 -14.503906 9.140625 -14.359375 C 9.347656 -14.460938 9.648438 -14.5625 10.046875 -14.65625 C 10.453125 -14.75 10.769531 -14.804688 11 -14.828125 C 11.40625 -13.835938 11.609375 -12.207031 11.609375 -9.9375 Z M 9.234375 -9.9375 "/></g></g></g><g fill="#ffffff" fill-opacity="1"><g transform="translate(208.121169, 206.309646)"><g><path d="M 12.453125 -14.84375 C 12.679688 -14.351562 12.859375 -13.46875 12.984375 -12.1875 C 13.109375 -10.90625 13.171875 -9.851562 13.171875 -9.03125 C 12.992188 -8.957031 12.710938 -8.898438 12.328125 -8.859375 C 11.941406 -8.816406 11.597656 -8.796875 11.296875 -8.796875 C 11.203125 -9.910156 11.0625 -10.765625 10.875 -11.359375 C 10.6875 -11.960938 10.429688 -12.375 10.109375 -12.59375 C 9.796875 -12.820312 9.378906 -12.9375 8.859375 -12.9375 L 8.515625 -12.9375 L 8.515625 -2.46875 C 8.515625 -2.070312 8.691406 -1.785156 9.046875 -1.609375 C 9.410156 -1.429688 9.96875 -1.34375 10.71875 -1.34375 C 10.71875 -1.09375 10.675781 -0.847656 10.59375 -0.609375 C 10.507812 -0.367188 10.394531 -0.164062 10.25 0 L 3.140625 0 C 2.992188 -0.164062 2.878906 -0.367188 2.796875 -0.609375 C 2.710938 -0.847656 2.671875 -1.09375 2.671875 -1.34375 C 4.242188 -1.34375 5.03125 -1.71875 5.03125 -2.46875 L 5.03125 -12.9375 L 4.578125 -12.9375 C 3.117188 -12.9375 2.273438 -11.554688 2.046875 -8.796875 C 1.066406 -8.835938 0.441406 -8.914062 0.171875 -9.03125 C 0.171875 -9.851562 0.234375 -10.90625 0.359375 -12.1875 C 0.484375 -13.46875 0.65625 -14.351562 0.875 -14.84375 C 1.519531 -14.84375 2.09375 -14.757812 2.59375 -14.59375 L 10.75 -14.59375 C 11.28125 -14.757812 11.847656 -14.84375 12.453125 -14.84375 Z M 12.453125 -14.84375 "/></g></g></g><g fill="#ffffff" fill-opacity="1"><g transform="translate(221.455141, 206.309646)"><g><path d="M 1.0625 0 C 0.925781 -0.164062 0.816406 -0.367188 0.734375 -0.609375 C 0.648438 -0.847656 0.609375 -1.09375 0.609375 -1.34375 C 1.066406 -1.34375 1.390625 -1.414062 1.578125 -1.5625 C 1.765625 -1.71875 1.859375 -1.992188 1.859375 -2.390625 L 1.859375 -12.203125 C 1.859375 -12.597656 1.765625 -12.875 1.578125 -13.03125 C 1.390625 -13.195312 1.066406 -13.28125 0.609375 -13.28125 C 0.609375 -13.507812 0.648438 -13.742188 0.734375 -13.984375 C 0.816406 -14.222656 0.925781 -14.425781 1.0625 -14.59375 L 6.140625 -14.59375 C 6.285156 -14.425781 6.398438 -14.222656 6.484375 -13.984375 C 6.566406 -13.742188 6.609375 -13.507812 6.609375 -13.28125 C 6.148438 -13.28125 5.828125 -13.195312 5.640625 -13.03125 C 5.453125 -12.875 5.359375 -12.597656 5.359375 -12.203125 L 5.359375 -2.390625 C 5.359375 -1.992188 5.453125 -1.71875 5.640625 -1.5625 C 5.828125 -1.414062 6.148438 -1.34375 6.609375 -1.34375 C 6.609375 -1.09375 6.566406 -0.847656 6.484375 -0.609375 C 6.398438 -0.367188 6.285156 -0.164062 6.140625 0 Z M 1.0625 0 "/></g></g></g><g fill="#ffffff" fill-opacity="1"><g transform="translate(228.665506, 206.309646)"><g><path d="M 13.671875 -14.59375 C 13.890625 -14.238281 14 -13.800781 14 -13.28125 C 13.519531 -13.28125 13.140625 -13.207031 12.859375 -13.0625 C 12.578125 -12.914062 12.375 -12.660156 12.25 -12.296875 L 8.703125 -1.859375 C 8.453125 -1.140625 8.160156 -0.625 7.828125 -0.3125 C 7.503906 -0.0078125 7.035156 0.140625 6.421875 0.140625 L 5.765625 0.140625 L 0.90625 -12.296875 C 0.757812 -12.660156 0.550781 -12.914062 0.28125 -13.0625 C 0.0195312 -13.207031 -0.351562 -13.28125 -0.84375 -13.28125 C -0.84375 -13.78125 -0.726562 -14.21875 -0.5 -14.59375 L 5.6875 -14.59375 C 5.9375 -14.144531 6.0625 -13.707031 6.0625 -13.28125 C 5.675781 -13.28125 5.375 -13.195312 5.15625 -13.03125 C 4.9375 -12.863281 4.828125 -12.628906 4.828125 -12.328125 C 4.828125 -12.242188 4.867188 -12.078125 4.953125 -11.828125 L 6.703125 -6.171875 L 7.34375 -3.875 L 7.96875 -6.125 L 9.640625 -11.890625 C 9.691406 -12.117188 9.71875 -12.265625 9.71875 -12.328125 C 9.71875 -12.628906 9.613281 -12.863281 9.40625 -13.03125 C 9.195312 -13.195312 8.890625 -13.28125 8.484375 -13.28125 C 8.484375 -13.550781 8.507812 -13.785156 8.5625 -13.984375 C 8.613281 -14.191406 8.703125 -14.394531 8.828125 -14.59375 Z M 13.671875 -14.59375 "/></g></g></g><g fill="#ffffff" fill-opacity="1"><g transform="translate(241.832273, 206.309646)"><g><path d="M 12.515625 -4.40625 C 12.515625 -3.945312 12.40625 -3.128906 12.1875 -1.953125 C 11.96875 -0.773438 11.765625 -0.015625 11.578125 0.328125 C 11.359375 0.273438 11.066406 0.164062 10.703125 0 L 1.03125 0 C 0.707031 -0.414062 0.546875 -0.851562 0.546875 -1.3125 C 1.015625 -1.3125 1.359375 -1.394531 1.578125 -1.5625 C 1.804688 -1.726562 1.921875 -2.007812 1.921875 -2.40625 L 1.921875 -12.203125 C 1.921875 -12.585938 1.8125 -12.863281 1.59375 -13.03125 C 1.382812 -13.195312 1.039062 -13.28125 0.5625 -13.28125 C 0.5625 -13.738281 0.722656 -14.175781 1.046875 -14.59375 L 9.15625 -14.59375 C 9.394531 -14.707031 9.671875 -14.796875 9.984375 -14.859375 C 10.296875 -14.921875 10.582031 -14.953125 10.84375 -14.953125 C 11.050781 -14.546875 11.273438 -13.984375 11.515625 -13.265625 C 11.765625 -12.554688 11.890625 -12.046875 11.890625 -11.734375 C 11.722656 -11.578125 11.4375 -11.414062 11.03125 -11.25 C 10.632812 -11.082031 10.289062 -10.96875 10 -10.90625 C 9.8125 -11.425781 9.519531 -11.875 9.125 -12.25 C 8.738281 -12.625 8.289062 -12.8125 7.78125 -12.8125 L 5.421875 -12.8125 L 5.421875 -8.40625 L 6.921875 -8.40625 C 7.828125 -8.40625 8.28125 -8.914062 8.28125 -9.9375 C 8.90625 -9.9375 9.46875 -9.785156 9.96875 -9.484375 L 9.96875 -5.609375 C 9.75 -5.460938 9.492188 -5.347656 9.203125 -5.265625 C 8.910156 -5.191406 8.609375 -5.15625 8.296875 -5.15625 C 8.296875 -5.6875 8.171875 -6.082031 7.921875 -6.34375 C 7.671875 -6.613281 7.34375 -6.75 6.9375 -6.75 L 5.421875 -6.75 L 5.421875 -1.84375 L 7.9375 -1.84375 C 8.53125 -1.84375 9.039062 -2.085938 9.46875 -2.578125 C 9.90625 -3.078125 10.175781 -3.6875 10.28125 -4.40625 Z M 12.515625 -4.40625 "/></g></g></g></svg>